<?xml version="1.0" encoding="utf-8"?><svg xmlns="http://www.w3.org/2000/svg" xmlns:xlink="http://www.w3.org/1999/xlink" width="49.647" height="50" viewBox="0 0 49.647 50"><defs><clipPath id="a"><rect width="49.647" height="50" fill="none"/></clipPath></defs><g transform="translate(0 0)"><g transform="translate(0 0)" clip-path="url(#a)"><path d="M36.591,23.11c-.264.01-.529.041-.864.069.11-.177.168-.272.228-.365A14.535,14.535,0,0,0,38.2,13.041,14.754,14.754,0,0,0,27.573.592C26.608.324,25.6.195,24.619,0H22.374c-.11.027-.22.056-.33.079-1.2.268-2.435.44-3.6.824a13.953,13.953,0,0,0-5.92,3.9.991.991,0,0,0-.033,1.437.967.967,0,0,0,1.431-.083c.071-.068.135-.141.2-.21a12.7,12.7,0,0,1,10.7-3.912,12.854,12.854,0,0,1,10.892,16.8,12.014,12.014,0,0,1-1.711,3.347l-.125-.7a1.023,1.023,0,0,0-1.127-.965.977.977,0,0,0-.808,1.231c.141.965.309,1.925.488,2.882a.92.92,0,0,0,1.015.795c1.13-.114,2.263-.247,3.387-.415a.914.914,0,0,0,.8-1.092.941.941,0,0,0-1.042-.812" transform="translate(11.335 -0.001)" fill="#624198"/><path d="M44.413,10.529A9.682,9.682,0,0,0,25.4,10.145c-.079.378-.141.758-.212,1.156-.166-.035-.293-.06-.419-.089a15.763,15.763,0,0,0-8.706.386A16.049,16.049,0,0,0,7.053,34.662a15.6,15.6,0,0,0,3.083,3.943.977.977,0,0,0,1.4.025.958.958,0,0,0-.025-1.4c-.075-.085-.162-.16-.241-.241A13.9,13.9,0,0,1,7.246,24.139,14.145,14.145,0,0,1,24.868,13.247a.556.556,0,0,1,.465.515,9.648,9.648,0,0,0,8.528,7.956.549.549,0,0,1,.538.442,13.859,13.859,0,0,1-.368,10.28,14.057,14.057,0,0,1-15.2,8.341,1.028,1.028,0,0,0-1.318.82c-.077.569.328,1,1.03,1.113A16.054,16.054,0,0,0,36.952,24.409c-.149-.907-.382-1.8-.573-2.687l2.51-.739c.031.083.069.17.1.262a18.441,18.441,0,0,1,.168,10.625A18.966,18.966,0,0,1,13.444,44.207,18.763,18.763,0,0,1,2.421,22.746,18.262,18.262,0,0,1,14.756,9.021a27.66,27.66,0,0,1,3.785-.882c.71-.145,1.109-.513,1.055-1.1-.056-.61-.525-.93-1.285-.847-.5.054-1,.131-1.5.23A20.837,20.837,0,1,0,40.735,20.337a.566.566,0,0,1,.231-.725,9.383,9.383,0,0,0,3.447-9.082m-9.57,9.31a7.818,7.818,0,0,1-7.7-7.736,7.787,7.787,0,0,1,7.745-7.672A7.707,7.707,0,0,1,42.6,12.165a7.808,7.808,0,0,1-7.755,7.674" transform="translate(0 2.302)" fill="#624198"/><path d="M7.918,21.641a.94.94,0,0,0-.93.978.921.921,0,0,0,.966.934.954.954,0,0,0,.968-.947.968.968,0,0,0-1.005-.965" transform="translate(6.492 20.105)" fill="#624198"/><path d="M12.372,6.306a.953.953,0,0,0,.986-.926.975.975,0,0,0-.97-1,.963.963,0,0,0-.015,1.925" transform="translate(10.62 4.069)" fill="#624198"/><path d="M20.987,5.885c-.006-.72-.374-1.14-.984-1.138s-.965.419-.966,1.148c0,1.121.012,2.244-.012,3.364a.953.953,0,0,1-.243.586c-.793.816-1.615,1.605-2.417,2.411a.977.977,0,1,0,1.362,1.387c.966-.943,1.939-1.879,2.867-2.859a1.686,1.686,0,0,0,.378-.951c.058-.644.017-1.3.017-1.948,0-.667,0-1.333,0-2" transform="translate(14.863 4.409)" fill="#624198"/><path d="M7.884,16.03c0,.639.419.936,1.335.957h5.737A2.985,2.985,0,0,1,12.188,19c-.617.041-1.256.019-1.873.019A1.582,1.582,0,0,0,8.7,19.9a1.637,1.637,0,0,0,.28,1.871c1.316,1.615,2.591,3.249,3.885,4.883.637.775,1.235,1.553,1.873,2.33a.977.977,0,0,0,1.414.28,1,1,0,0,0,.1-1.5c-.06-.079-.141-.179-.2-.258-1.395-1.754-2.809-3.526-4.2-5.28-.3-.4-.6-.777-.976-1.256.538,0,.936,0,1.354-.019a4.45,4.45,0,0,0,4.184-2.591c.519-1.134,1.076-1.553,2.272-1.414a.732.732,0,0,0,.677-.218.961.961,0,0,0,.278-.679.89.89,0,0,0-.258-.718,1.077,1.077,0,0,0-.7-.3c-.419-.021-.858.019-1.3-.021a.591.591,0,0,1-.438-.258c-.239-.538-.438-1.115-.677-1.732.777,0,1.553.019,2.311,0a1.226,1.226,0,0,0,.8-.3.963.963,0,0,0,.28-.7.9.9,0,0,0-.26-.658,1.054,1.054,0,0,0-.816-.3c-3.208,0-6.416,0-9.622.021a1.256,1.256,0,0,0-.878.4,1.032,1.032,0,0,0-.1.957A1.351,1.351,0,0,0,8.92,13c1.136.06,2.292,0,3.447.021A2.627,2.627,0,0,1,14.9,15.034H9.26c-.957,0-1.395.318-1.375,1" transform="translate(7.325 10.282)" fill="#624198"/></g></g></svg>