<?xml version="1.0" encoding="utf-8"?><svg xmlns="http://www.w3.org/2000/svg" xmlns:xlink="http://www.w3.org/1999/xlink" width="74" height="74" viewBox="0 0 74 74"><defs><filter id="a" x="0" y="0" width="74" height="74" filterUnits="userSpaceOnUse"><feOffset dy="3" input="SourceAlpha"/><feGaussianBlur stdDeviation="3" result="b"/><feFlood flood-opacity="0.161"/><feComposite operator="in" in2="b"/><feComposite in="SourceGraphic"/></filter></defs><g transform="translate(9 6)"><g transform="translate(-1220 -4346)"><g transform="matrix(1, 0, 0, 1, 1211, 4340)" filter="url(#a)"><rect width="56" height="56" rx="6" transform="translate(9 6)" fill="#ac9ccc"/></g><g transform="translate(-9.123 8.852)"><g transform="translate(1240.123 4345.148)"><path d="M86.376,130.608a2.594,2.594,0,0,1-1.837-1.383,3.718,3.718,0,0,1-.3-1.39c-.035-1.694-.015-3.39-.015-5.079v-.509h-1.6a1.569,1.569,0,0,1-1.741-1.741q-.012-8.194,0-16.39a1.348,1.348,0,0,1,.015-.225h20.024c0,.129.017.255.017.382,0,5.359.007,10.719-.012,16.077a2.835,2.835,0,0,1-.29,1.225,1.343,1.343,0,0,1-1.251.669c-.57.015-1.144,0-1.76,0-.01.177-.025.327-.025.476,0,1.6-.041,3.183.01,4.772a2.775,2.775,0,0,1-2.164,3.124h-.7A2.777,2.777,0,0,1,92.57,127.5c.048-1.6.012-3.2.01-4.806,0-.138-.013-.277-.019-.418H89.245v.5c0,1.681.022,3.361-.015,5.041a3.85,3.85,0,0,1-.311,1.425,2.562,2.562,0,0,1-1.84,1.376Z" transform="translate(-74.181 -90.561)" fill="#fff"/><path d="M100.922,23.637H80.84a9.789,9.789,0,0,1,4.169-8.027c-.7-.7-1.384-1.376-2.061-2.062a.833.833,0,1,1,1.168-1.162c.643.628,1.29,1.254,1.9,1.911a.6.6,0,0,0,.794.154,10.313,10.313,0,0,1,8.127,0,.594.594,0,0,0,.794-.145c.623-.666,1.281-1.3,1.933-1.937a.824.824,0,0,1,1.46.39.9.9,0,0,1-.347.823L96.75,15.613A9.815,9.815,0,0,1,100.922,23.637ZM86.7,20.723a1.238,1.238,0,1,0-.883-.36,1.235,1.235,0,0,0,.883.36Zm8.373,0a1.235,1.235,0,1,0-.883-.355,1.239,1.239,0,0,0,.883.355Z" transform="translate(-74.147 -12.045)" fill="#fff"/><path d="M39.732,111.929v5.748a2.552,2.552,0,0,1-2.093,2.592,2.509,2.509,0,0,1-2.9-2.518c-.029-3.859-.022-7.718,0-11.575a2.5,2.5,0,0,1,4.934-.614,3.387,3.387,0,0,1,.07.814Q39.732,109.161,39.732,111.929Z" transform="translate(-34.718 -90.312)" fill="#fff"/><path d="M230.77,111.959v-5.67a2.561,2.561,0,0,1,1.656-2.5,2.524,2.524,0,0,1,3.354,2.534q.013,4.029,0,8.056c0,1.264.033,2.532-.061,3.789a2.468,2.468,0,0,1-2.5,2.177,2.51,2.51,0,0,1-2.422-2.364c-.041-2.007-.012-4.014-.012-6.023Z" transform="translate(-202.319 -90.342)" fill="#fff"/></g></g></g></g></svg>