<?xml version="1.0" encoding="utf-8"?><svg xmlns="http://www.w3.org/2000/svg" xmlns:xlink="http://www.w3.org/1999/xlink" width="30.199" height="28" viewBox="0 0 30.199 28"><defs><clipPath id="a"><rect width="30.2" height="28" fill="none"/></clipPath></defs><g transform="translate(17014 4833)"><g transform="translate(-17014 -4833)" clip-path="url(#a)"><rect width="29.247" height="27.047" rx="2.382" transform="translate(0.476 0.476)" fill="none" stroke="#fff" stroke-linecap="round" stroke-linejoin="round" stroke-width="1.652"/><line x2="29.247" transform="translate(0.476 4.941)" fill="none" stroke="#fff" stroke-miterlimit="10" stroke-width="1"/><path d="M5.633,4.95a.759.759,0,1,1,.758-.758.759.759,0,0,1-.758.758" transform="translate(-2.064 -1.453)" fill="#fff"/><path d="M9.842,4.95a.759.759,0,1,1,.758-.758.759.759,0,0,1-.758.758" transform="translate(-3.846 -1.453)" fill="#fff"/><path d="M14.051,4.95a.759.759,0,1,1,.758-.758.759.759,0,0,1-.758.758" transform="translate(-5.627 -1.453)" fill="#fff"/></g><text transform="translate(-17004.9 -4814)" fill="#fff" font-size="9" font-family="Poppins-Medium, Poppins" font-weight="500"><tspan x="0" y="0">.in</tspan></text></g></svg>