<?xml version="1.0" encoding="utf-8"?><svg xmlns="http://www.w3.org/2000/svg" width="28" height="28" viewBox="0 0 28 28"><path d="M19.745,17.718l-2.831-.532a.94.94,0,0,1-.718-1.093.892.892,0,0,1,1.026-.766l3.095.582a1.942,1.942,0,0,1,1.526,2.251c0,.024-.012.045-.016.068a3.538,3.538,0,0,1-.734,1.387c-2.019,2.321-6.807,1.652-10.694-1.495S5,10.542,7.017,8.222A3.859,3.859,0,0,1,8.883,7.071c.063-.016.123-.038.186-.047h0a1.881,1.881,0,0,1,2.019,1.144l1.1,2.953a.835.835,0,0,1-.517,1.078.869.869,0,0,1-1.106-.5L9.555,8.981a.389.389,0,0,0-.477-.208,2.167,2.167,0,0,0-.72.533c-1.4,1.607.019,4.974,3.166,7.521s6.832,3.309,8.229,1.7a2.023,2.023,0,0,0,.222-.319.331.331,0,0,0,.037-.1.347.347,0,0,0-.266-.391Zm-17.12.657A.875.875,0,1,1,1.75,17.5a.875.875,0,0,1,.875.875ZM14,28a13.918,13.918,0,0,1-6.126-1.417l-.083-.038c-.027-.013-.054-.025-.081-.038A2.4,2.4,0,0,0,6,26.335l-.035.008-2.539.705a.255.255,0,0,0-.03.006A1.99,1.99,0,0,1,.946,24.609c.006-.025.008-.043.014-.065l.742-2.67H1.75a.875.875,0,0,1,1.75,0h.018l-.028.1a.837.837,0,0,1-.074.266L2.63,25.073s0,0,0,0a.239.239,0,0,0,.28.3s0,0,0,0l2.6-.724.014,0a4.137,4.137,0,0,1,2.947.285.2.2,0,0,0,.028.009A12.246,12.246,0,1,0,1.75,14c0,.257.013.511.028.763l-.039,0a.861.861,0,0,1,.011.108.875.875,0,1,1-1.75,0,.844.844,0,0,1,.023-.193C.011,14.455,0,14.229,0,14A14,14,0,1,1,14,28Z" fill="#fff" fill-rule="evenodd"/></svg>