<?xml version="1.0" encoding="utf-8"?><svg xmlns="http://www.w3.org/2000/svg" xmlns:xlink="http://www.w3.org/1999/xlink" width="65.519" height="50" viewBox="0 0 65.519 50"><defs><clipPath id="a"><rect width="65.519" height="50" fill="none"/></clipPath></defs><g transform="translate(-142 -1124)"><g transform="translate(142 1124)"><g transform="translate(0 0)" clip-path="url(#a)"><path d="M5.985,16.511c0,.672.433.988,1.381,1.008H13.3a3.092,3.092,0,0,1-2.864,2.122c-.638.044-1.3.022-1.936.022a1.622,1.622,0,0,0-1.669.925,1.753,1.753,0,0,0,.288,1.974c1.359,1.7,2.678,3.425,4.016,5.147.659.82,1.278,1.639,1.938,2.459a1,1,0,0,0,1.462.294,1.072,1.072,0,0,0,.1-1.576c-.062-.085-.143-.189-.2-.274-1.443-1.848-2.9-3.717-4.347-5.567-.309-.42-.619-.818-1.009-1.323.557,0,.969,0,1.4-.022A4.6,4.6,0,0,0,14.8,18.968c.536-1.2,1.112-1.637,2.347-1.491a.749.749,0,0,0,.7-.231,1.015,1.015,0,0,0,.288-.714.949.949,0,0,0-.267-.757,1.108,1.108,0,0,0-.721-.316c-.433-.02-.886.022-1.338-.02a.609.609,0,0,1-.455-.274c-.248-.566-.452-1.175-.7-1.828.8,0,1.607.022,2.39,0a1.237,1.237,0,0,0,.824-.313,1.025,1.025,0,0,0,.288-.736.959.959,0,0,0-.267-.694,1.086,1.086,0,0,0-.845-.316c-3.316,0-6.635,0-9.951.022a1.277,1.277,0,0,0-.9.42,1.113,1.113,0,0,0-.1,1.008,1.4,1.4,0,0,0,.969.59c1.174.063,2.369,0,3.564.02a2.733,2.733,0,0,1,2.616,2.122H7.407c-.988,0-1.443.337-1.421,1.051" transform="translate(6.787 13.268)" fill="#624198"/><path d="M63.873,21.215a5,5,0,0,0-4.1-1.129.967.967,0,0,0,.053,1.93h1.122A2.767,2.767,0,0,1,63.6,24.7c.021,3.023.021,6.133.021,9.114,0,.62,0,1.234-.009,1.848-.006.6-.013,1.195-.013,1.8H37.43a18.253,18.253,0,0,0,.134-5.116c-.013-.146-.034-.3-.058-.45h4.462a3.555,3.555,0,0,0,3.444-3.382A3.426,3.426,0,0,0,42.3,24.83c-2.388-.1-4.8-.1-7.158,0H35.1a13.59,13.59,0,0,0-.819-1.247c-.391-.531-.781-1.036-1.208-1.567H52.221a.906.906,0,0,0,.939-.977c0-.326-.126-.884-.98-.955h-20.7c-.237-.287-.476-.572-.713-.855-.273-.329-.548-.657-.819-.988-.228-.285-.455-.564-.683-.842l-.282-.35c.689.12,1.434.279,2.294.487.647.148,1.291.3,1.938.45,1.27.3,2.582.609,3.878.875a2.4,2.4,0,0,0,2.77-1.974,2.482,2.482,0,0,0-1.842-2.973c-.7-.183-1.408-.344-2.162-.516.277-.083.54-.165.792-.266a2.452,2.452,0,0,0,1.332-1.362,2.588,2.588,0,0,0-.009-1.941A2.553,2.553,0,0,0,34.79,8.434c-2.019.588-4.035,1.153-6.056,1.721a.387.387,0,0,1-.23-.011,3.3,3.3,0,0,1-.292-.326c-.051-.065-.107-.131-.16-.192.034-.078.073-.157.117-.25.218-.47.44-.94.662-1.408.4-.851.819-1.732,1.2-2.612a14.485,14.485,0,0,0,1.212-4.081A1.183,1.183,0,0,0,30.975.264,1.17,1.17,0,0,0,29.942.022q-.781.1-1.56.22c-1.336.2-2.717.4-4.065.472a36.525,36.525,0,0,1-8.828-.67A1.119,1.119,0,0,0,14.267.4a1.126,1.126,0,0,0,0,1.173l.038.091c.184.424.352.857.525,1.295.079.2.16.407.241.614h-.038A13.644,13.644,0,0,1,8.625,2.436a1.009,1.009,0,0,0-1.067.083,1.039,1.039,0,0,0-.333,1.018,16.183,16.183,0,0,0,2.533,6.72c.1.137.19.274.282.418a2.488,2.488,0,0,0-2.076,2.279A2.536,2.536,0,0,0,9.756,15.58c-.045.07-.09.139-.137.207a9.019,9.019,0,0,1-.674.958C7.7,18.251,6.427,19.735,5.2,21.173,1.295,25.748-.383,30.629.074,36.1a13.45,13.45,0,0,0,4.55,9.11,19.194,19.194,0,0,0,9.735,4.4c.651.113,1.31.189,1.946.263.322.037.647.074,1,.118l3.056,0,1.543-.187a22.431,22.431,0,0,0,5.5-1.286,5.9,5.9,0,0,0,2.038.342H60.482c3.107,0,5.036-1.97,5.036-5.136V25.2a5.225,5.225,0,0,0-1.645-3.983M36.09,26.736c1.857-.037,3.767-.033,5.828.007a1.591,1.591,0,0,1,1.6,1.606,1.625,1.625,0,0,1-1.7,1.608H37.167a16.651,16.651,0,0,0-1.078-3.221M27.063,13.667c0,.318.009.635,0,.955-.015.429-.2.655-.546.67-.373,0-.587-.233-.587-.646-.019-.986-.019-1.987,0-2.968a.741.741,0,0,1,.207-.522.466.466,0,0,1,.333-.128c.44.007.57.357.593.672v1.482c0,.161,0,.324,0,.485M25.68,9.226a2.346,2.346,0,0,0-1.4,1.217.887.887,0,0,1-.395.183.553.553,0,0,0-.177.009c-.886.187-1.357-.122-1.729-1.149l-.224-.618A14.9,14.9,0,0,1,20.569,4.14a1.064,1.064,0,0,0-.341-.8,1,1,0,0,0-.668-.224,1.4,1.4,0,0,0-.23.017l-.322.048c-.674.1-1.357.2-2.044.316-.113-.433-.218-.844-.329-1.284a38.094,38.094,0,0,0,12.488-.065,39.116,39.116,0,0,1-2.631,6.339c-.22.4-.373.655-.811.74m-8.562,1.4c-1.483,0-2.985,0-4.471-.022a.53.53,0,0,1-.294-.085,13.516,13.516,0,0,1-2.9-5.669A21.046,21.046,0,0,0,18.73,5.2a21.252,21.252,0,0,0,1.69,5.428Zm-5.672,5.839a6.522,6.522,0,0,1,.365-.583.538.538,0,0,1,.305-.194,3.908,3.908,0,0,1,.395-.017c.134,0,.275,0,.416.009s.29.009.442.009h.011c.67-.026,1.071-.383,1.071-.945a.893.893,0,0,0-.226-.659,1.176,1.176,0,0,0-.856-.35H10.8c-.145,0-.331,0-.467-.015a.525.525,0,0,1-.452-.524.486.486,0,0,1,.354-.551,1.07,1.07,0,0,1,.4-.085H23.917l.051,0v1.173H17.3a2.293,2.293,0,0,0-.566.048.9.9,0,0,0-.743.986.916.916,0,0,0,.828.9,4.876,4.876,0,0,0,.563.022c2.164,0,4.328,0,6.49-.02.245,0,.335.033.448.248a2.384,2.384,0,0,0,2.187,1.328.38.38,0,0,1,.273.1l2.636,3.127,1.174,1.452c.42.5.894,1.075,1.338,1.656A16.454,16.454,0,0,1,33.4,25.731a11.068,11.068,0,0,1,.687,1.28,14.582,14.582,0,0,1,1.176,3.247l.083.379c.075.353.145.694.2,1.053a14.491,14.491,0,0,1-.128,6.009.638.638,0,0,1-.032.168,12.1,12.1,0,0,1-.405,1.3,10.772,10.772,0,0,1-1.577,2.825A10.275,10.275,0,0,1,32.084,43.5a16.25,16.25,0,0,1-1.705,1.343,18.248,18.248,0,0,1-3.007,1.619c-.48.2-1.007.383-1.569.559h0a21.408,21.408,0,0,1-4.2.873,23.456,23.456,0,0,1-10.015-.977,14.961,14.961,0,0,1-6.694-4.155A12.217,12.217,0,0,1,1.9,33.718,18.212,18.212,0,0,1,6.525,22.6c1.46-1.756,2.968-3.573,4.43-5.38a5.11,5.11,0,0,0,.491-.755M63.561,41.889H35.8a14.131,14.131,0,0,0,.779-1.552c.139-.32.241-.588.327-.844H63.561ZM31.38,46.514a14.149,14.149,0,0,0,2.966-2.588H63.582a2.89,2.89,0,0,1-.738,2.135,2.955,2.955,0,0,1-2.26.871H30.729c.207-.128.423-.268.651-.418M37.3,15.746a1.311,1.311,0,0,1,.649.383.5.5,0,0,1,.011.538.54.54,0,0,1-.534.266,7.1,7.1,0,0,1-1.2-.244l-7.017-1.639c-.081-.022-.162-.046-.239-.07V13.8l.2.046c.267.059.525.115.787.183l.073.017c2.426.561,4.853,1.123,7.268,1.7M35.755,11.4c-1.219.379-2.45.72-3.643,1.049a.529.529,0,0,1-.318,0c-.723-.157-1.447-.324-2.17-.5.064-.017.126-.037.188-.054.4-.113.79-.226,1.172-.344l4.428-1.26c.408-.113.736.026.822.353a.582.582,0,0,1-.478.757" transform="translate(0.001 0)" fill="#624198"/><path d="M24.568,15.29c.8,0,1.6,0,2.4,0l4.921-.007c.659,0,1.317,0,2,.009.7,0,1.076-.3,1.148-.905a.855.855,0,0,0-.2-.655,1.246,1.246,0,0,0-.948-.374c-3.124-.013-6.251-.009-9.379,0a.989.989,0,0,0-1.129.968.791.791,0,0,0,.194.612,1.317,1.317,0,0,0,.99.353" transform="translate(26.514 15.708)" fill="#624198"/><path d="M25.057,13.679c.309,0,.619,0,.924-.007a.9.9,0,0,0,.988-.925.962.962,0,0,0-.233-.709,1.047,1.047,0,0,0-.764-.283c-1.248-.015-2.384-.013-3.478,0a.89.89,0,0,0-.984.918.905.905,0,0,0,.994,1c.233.007.465.011.7.011.179,0,.361,0,.54,0l.5,0Z" transform="translate(24.393 13.817)" fill="#624198"/><path d="M24.7,12.737a.9.9,0,0,0,.973.934l0,0c.169.007.337.009.508.009.111,0,.222,0,.333,0l.367-.007c.124,0,.245,0,.373.007H27.4c.23,0,.465,0,.694-.013a.9.9,0,0,0,.933-.975.868.868,0,0,0-.9-.921c-.828-.033-1.667-.035-2.495,0a.871.871,0,0,0-.93.971" transform="translate(28.014 13.816)" fill="#624198"/><path d="M28.672,13.681h.079c.1,0,.209,0,.314,0,.147,0,.292,0,.44-.011a.918.918,0,0,0,.971-.942.9.9,0,0,0-.93-.968,3.2,3.2,0,0,0-.322-.009l-.25,0v-.013l-.337,0c-.834.024-1.251.357-1.238.988s.429.934,1.274.947" transform="translate(31.07 13.815)" fill="#624198"/><path d="M22.984,13.352c-.61,0-1.372.009-1.46.84a1.235,1.235,0,0,0,.3.851l.1.041a5.519,5.519,0,0,0,.971.085,5.3,5.3,0,0,0,.819-.061l.094-.039a1.21,1.21,0,0,0,.331-.818c-.049-.6-.42-.9-1.1-.9Z" transform="translate(24.406 15.707)" fill="#624198"/></g></g></g></svg>