<?xml version="1.0" encoding="utf-8"?><svg xmlns="http://www.w3.org/2000/svg" xmlns:xlink="http://www.w3.org/1999/xlink" width="41.062" height="41.05" viewBox="0 0 41.062 41.05"><defs><clipPath id="a"><rect width="41.062" height="41.05"/></clipPath></defs><g transform="translate(0 0)" clip-path="url(#a)"><path d="M34.7,18.18a1.327,1.327,0,0,1-.043-.238A20.377,20.377,0,0,0,30.584,7.156a.6.6,0,0,1-.077-.763,3.355,3.355,0,0,0-4.767-4.353,3.352,3.352,0,0,0,1.667,6.215h.065a6.047,6.047,0,0,0,1.2-.19c.168-.038.341-.077.516-.11l.038.05c.037.045.088.11.137.182A18.633,18.633,0,0,1,31.7,26.645,18.9,18.9,0,0,1,14.51,38.4h-.062a25.408,25.408,0,0,1-2.907-.228c-.34-.04-.678-.078-1.023-.113a.822.822,0,0,0-.991.63.8.8,0,0,0,.7.944c.132.028.265.057.393.075q.847.12,1.691.232l.618.083,2.579,0,.818-.108c.483-.063.968-.127,1.449-.2A20.469,20.469,0,0,0,34.232,23.939c.135-.646.222-1.333.3-1.937.04-.3.078-.606.12-.906.013-.07.028-.142.045-.21l.03-.152ZM29.265,4.923A1.771,1.771,0,0,1,27.5,6.667v.208l0-.208a1.763,1.763,0,0,1,0-3.526,1.777,1.777,0,0,1,1.766,1.782" transform="translate(6.333 1.024)"/><path d="M5.637,32.124l-.148-.153-.013.01c-.043-.057-.088-.113-.13-.172a18.458,18.458,0,0,1-2.96-16.572A18.363,18.363,0,0,1,13.419,3,18.471,18.471,0,0,1,24.182,1.944a.95.95,0,0,0,.751-.123.756.756,0,0,0,.313-.515.742.742,0,0,0-.125-.571.935.935,0,0,0-.646-.353L23.847.288a22.315,22.315,0,0,0-2.47-.273A20.217,20.217,0,0,0,7.248,4.869a20.491,20.491,0,0,0-4.977,25c.426.82.921,1.6,1.4,2.357l.14.223c.182.288.363.575.541.873a3.347,3.347,0,0,0,.823,4.464,3.4,3.4,0,0,0,2.052.691,3.371,3.371,0,1,0-1.591-6.351m1.589,1.019.012.208a1.775,1.775,0,1,1-.012,0Z" transform="translate(0 0)"/><path d="M17.076,2.453a.793.793,0,0,0,.561-.238.818.818,0,0,0,.237-.578.788.788,0,0,0-.791-.78h0a.809.809,0,0,0-.58.243.771.771,0,0,0-.223.565.816.816,0,0,0,.8.788" transform="translate(10.835 0.571)"/><path d="M8.248,22.832H8.233a.8.8,0,0,0-.561.24.786.786,0,0,0,.566,1.351.78.78,0,0,0,.551-.215.792.792,0,0,0,.233-.57.8.8,0,0,0-.775-.806" transform="translate(4.948 15.2)"/><path d="M12.519,10.146a.483.483,0,1,0-.481-.5.49.49,0,0,0,.481.5" transform="translate(8.014 6.111)"/><path d="M24.521,18.691c-.536-.861-1.091-1.729-1.629-2.567l-.725-1.131L20.846,12.92a1.784,1.784,0,0,0-.18-3.112l.045-.167.25-.88c.252-.886.5-1.771.763-2.654a.722.722,0,0,0-.257-.835,2.033,2.033,0,0,0-2.605.033.871.871,0,0,1-1.394.01,2.017,2.017,0,0,0-2.662-.008.879.879,0,0,1-1.414,0,2.024,2.024,0,0,0-2.625-.01.69.69,0,0,0-.24.795c.123.4.238.811.353,1.218l.715,2.5a1.782,1.782,0,0,0-.185,3.112c-.027.045-.055.09-.083.135q-.55.862-1.1,1.722-1.252,1.954-2.49,3.914a7.124,7.124,0,0,0-1.076,4.646,7.283,7.283,0,0,0,5.212,6.207c.321.09.653.15.974.207l.47.087,5.648,0,.06-.017a.635.635,0,0,1,.108-.025,7.067,7.067,0,0,0,2.917-.956,7.292,7.292,0,0,0,2.47-10.144M12.716,6.275a1.95,1.95,0,0,0,2.08.42,2.434,2.434,0,0,0,.7-.436.862.862,0,0,1,1.258,0,2,2,0,0,0,2.823-.013.794.794,0,0,1,.931-.168L19.486,9.651H12.774L11.748,6.073a.808.808,0,0,1,.968.2M24.255,24.11a6.162,6.162,0,0,1-3.062,3.854,5.822,5.822,0,0,1-2.647.688c-1.547.017-3.2.03-4.869,0a6.1,6.1,0,0,1-4.907-9.4q1.067-1.684,2.139-3.36.84-1.312,1.674-2.625a.188.188,0,0,1,.19-.107h.013c.361.007.723,0,1.094,0a.59.59,0,1,0,0-1.173c-.228,0-.455,0-.685,0-.265,0-.53,0-.793,0a.581.581,0,0,1-.641-.581.57.57,0,0,1,.65-.57q1.3,0,2.6,0l1.113,0,1.1,0q1.324,0,2.65,0a.569.569,0,0,1,.616.536.585.585,0,0,1-.148.431.593.593,0,0,1-.431.18c-.331.007-.661,0-.991,0-.172,0-.341,0-.51,0-.415,0-.678.22-.688.571a.543.543,0,0,0,.15.406.73.73,0,0,0,.536.2h.346c.235,0,.478,0,.716.008a.269.269,0,0,1,.185.09l.416.648c1.133,1.764,2.305,3.588,3.44,5.394a6.008,6.008,0,0,1,.74,4.811" transform="translate(4.406 3.203)"/><path d="M15.875,12.975a.406.406,0,0,0-.46-.411c-1.381,0-2.762-.007-4.143,0a.535.535,0,0,0-.378.173.453.453,0,0,0-.037.408.585.585,0,0,0,.4.24c.493.028.988,0,1.482.013a1.131,1.131,0,0,1,1.093.861h-.306c-.708,0-1.418,0-2.125,0-.4,0-.6.14-.593.428s.183.408.576.411H13.86a1.31,1.31,0,0,1-1.194.871c-.27.015-.541.008-.811,0a.682.682,0,0,0-.691.38.7.7,0,0,0,.125.8c.56.7,1.114,1.4,1.671,2.1.267.336.531.675.8,1.008a.43.43,0,0,0,.613.118.435.435,0,0,0,.04-.643c-.027-.038-.057-.075-.085-.112q-.9-1.137-1.811-2.277c-.13-.163-.258-.33-.42-.538.233,0,.408.007.581,0A1.936,1.936,0,0,0,14.484,15.7c.217-.486.46-.673.973-.608a.367.367,0,0,0,.416-.388.4.4,0,0,0-.413-.433c-.185-.015-.373,0-.558-.012a.257.257,0,0,1-.187-.112c-.108-.233-.193-.476-.3-.746.338,0,.67.007,1,0a.417.417,0,0,0,.456-.423" transform="translate(7.195 8.362)"/></g></svg>