<?xml version="1.0" encoding="UTF-8"?><svg xmlns="http://www.w3.org/2000/svg" xmlns:xlink="http://www.w3.org/1999/xlink" width="58.94" height="58.937" viewBox="0 0 58.94 58.937"><defs><filter id="a"><feOffset dx="3" dy="5" input="SourceAlpha"/><feGaussianBlur stdDeviation="3" result="b"/><feFlood flood-color="#fff" flood-opacity="0.161" result="c"/><feComposite operator="out" in="SourceGraphic" in2="b"/><feComposite operator="in" in="c"/><feComposite operator="in" in2="SourceGraphic"/></filter><clipPath id="d"><rect width="58.937" height="58.937" fill="rgba(0,0,0,0)"/></clipPath><linearGradient id="e" x1="-0.008" y1="1.008" x2="0.008" y2="1.008" gradientUnits="objectBoundingBox"><stop offset="0" stop-color="#012650"/><stop offset="1" stop-color="#d22727"/></linearGradient><clipPath id="f"><rect width="25.706" height="30" fill="#fff"/></clipPath></defs><g transform="translate(-869 -3992)"><g data-type="innerShadowGroup"><path d="M28.97,0A28.97,28.97,0,1,1,0,28.97,28.97,28.97,0,0,1,28.97,0Z" transform="translate(870 3992)" fill="#634299"/><g transform="matrix(1, 0, 0, 1, 869, 3992)" filter="url(#a)"><path d="M28.97,0A28.97,28.97,0,1,1,0,28.97,28.97,28.97,0,0,1,28.97,0Z" transform="translate(1)" fill="#fff"/></g></g><g transform="translate(869 3992)"><g transform="translate(0 0)" clip-path="url(#d)"><path d="M58.559,29.53h0A29.03,29.03,0,1,1,29.53.5a29.029,29.029,0,0,1,29.03,29.03h0a29.03,29.03,0,1,0-29.03,29.03,29.029,29.029,0,0,0,29.03-29.03Z" transform="translate(-0.061 -0.061)" fill="url(#e)"/></g></g><g transform="translate(885.617 4004.456)"><g clip-path="url(#f)"><path d="M38.052,0c.831.354,1.012.633,1.012,1.564V20.728c.117-.112.19-.18.261-.251q3.127-3.128,6.254-6.255a1.264,1.264,0,0,1,1.613-.3,1.24,1.24,0,0,1,.352,1.847,2.954,2.954,0,0,1-.238.258L38.835,24.5a1.273,1.273,0,0,1-2.035,0q-4.256-4.256-8.512-8.513a1.264,1.264,0,0,1-.141-1.827,1.248,1.248,0,0,1,1.692-.134,3.761,3.761,0,0,1,.3.28q3.076,3.075,6.149,6.153a2.368,2.368,0,0,1,.206.283.512.512,0,0,0,.076-.374q0-9.4,0-18.8c0-.931.181-1.21,1.011-1.564Z" transform="translate(-24.915)" fill="#fff"/><path d="M37.854,265.85q-4.319,0-8.638,0a1.247,1.247,0,0,1-1.35-1.138,1.231,1.231,0,0,1,.983-1.326,2.465,2.465,0,0,1,.436-.038q8.565,0,17.13,0a1.27,1.27,0,0,1,1.413,1.071,1.238,1.238,0,0,1-1.131,1.426c-.116.01-.234.007-.351.007H37.854" transform="translate(-24.949 -235.85)" fill="#fff"/></g></g></g></svg>