<?xml version="1.0" encoding="utf-8"?><svg xmlns="http://www.w3.org/2000/svg" width="50.764" height="50.002" viewBox="0 0 50.764 50.002"><g transform="translate(-347.618 -1330)"><path d="M23.693,34.9a2.544,2.544,0,0,0-2.708-2.721c-2.027,0-4.053,0-6.08,0H14.42v1.692h.6c1.991,0,3.984,0,5.975,0,.5,0,.932.182.97.691.067.885.02,1.781.02,2.656H6.9a4.182,4.182,0,0,1,4-3.339c.59-.014,1.182,0,1.769,0V32.111a22,22,0,0,0-3.01.253,5.831,5.831,0,0,0-4.576,5.728c-.01.841,0,1.68,0,2.51H3.39c0-1.362,0-2.684,0-4.006A9.3,9.3,0,0,1,12.9,27.1q5.949-.006,11.9,0h.594v.645q0,4.257,0,8.516a2.544,2.544,0,0,0,2.686,2.688c1.532.006,3.066,0,4.6,0A4.251,4.251,0,0,0,37.229,34.4q0-7.565,0-15.129V18.66h1.795c.307,2.282.612,4.548.926,6.866l1.668-.243c-.154-1.138-.3-2.217-.445-3.3-.146-1.1-.285-2.2-.431-3.329,1.233-.095,2.678.37,3.163-1.15.9.1,1.706.228,2.518.275a.828.828,0,0,0,.954-.936q.015-2.432,0-4.865c0-.629-.325-.982-.944-.948-.827.049-1.649.176-2.529.275a1.853,1.853,0,0,0-2.021-1.142c-2.08.032-4.16.006-6.24.01A3.336,3.336,0,0,0,32.4,12.352a.467.467,0,0,1-.528.368c-.863-.018-1.728-.012-2.591,0a2.116,2.116,0,1,0,0,4.228c.986.008,1.973-.006,2.959.008a.644.644,0,0,1,.459.148,3.534,3.534,0,0,0,2.806,1.556,1.911,1.911,0,0,1,.028.226c0,5.29.01,10.579,0,15.869a2.5,2.5,0,0,1-2.494,2.5c-1.657.022-3.315.01-4.97,0-.681,0-.982-.319-.988-1.019-.006-.829,0-1.657,0-2.486v-6.6c.728-.287.843-.449.845-1.18,0-.37,0-.742,0-1.112a2.575,2.575,0,0,0-2.856-2.838H21.324A12.708,12.708,0,1,0,3.883,3.539,12.773,12.773,0,0,0,4.912,22.783a2.6,2.6,0,0,0,1.736,4.358l-2.5,2.221A2.52,2.52,0,0,0,.41,30,2.439,2.439,0,0,0,.1,31.93a2.658,2.658,0,0,0,1.884,1.91c-.5,2.583-.224,5.144-.273,7.695a.794.794,0,0,0,.875.8c.6.016,1.2.006,1.8.006H5.952a6.826,6.826,0,0,0,6.171,7.592,6.482,6.482,0,0,0,4.782-1.457,6.819,6.819,0,0,0,2.533-6.151h9.3v-1.7H23.693c0-1.944,0-3.83,0-5.716M45.674,12.746v3.3A1.621,1.621,0,0,1,44,14.472a1.661,1.661,0,0,1,1.676-1.726m-10.252-.865c2.268-.02,4.538-.008,6.846-.008v5.039H37.379c.174-.091.313-.158.449-.234A2.108,2.108,0,0,0,38.875,14.4a2.085,2.085,0,0,0-1.983-1.674c-.893-.024-1.789-.006-2.785-.006a1.523,1.523,0,0,1,1.316-.835m-6,3.373c-.321,0-.645-.022-.635-.437s.346-.414.659-.412c1.2,0,2.393,0,3.59,0,1.162,0,2.324,0,3.485,0,.327,0,.693-.018.689.437-.006.412-.346.412-.659.412q-3.566,0-7.129,0M17.747,25.409H14.086l3.661-.948Zm7.691-1.68a.777.777,0,0,1,.784.78c.028.275,0,.556,0,.867H19.491V23.721c2.005,0,3.976-.012,5.947.008M1.7,12.818a11,11,0,1,1,11.048,10.9A11,11,0,0,1,1.7,12.818M6,24.243c.168-.372.39-.54.827-.3A13.555,13.555,0,0,0,11.4,25.407c-1.548,0-3.1.016-4.643-.008A.823.823,0,0,1,6,24.243M2.53,32.17c-.479-.077-.792-.325-.8-.75a.985.985,0,0,1,.352-.744,1.468,1.468,0,0,1,.873-.046c.065.008.176.315.129.435A12.007,12.007,0,0,1,2.53,32.17m13.1,15.145a5.048,5.048,0,0,1-5.88,0,4.907,4.907,0,0,1-2.013-4.952h2.531a2.536,2.536,0,0,0,1.079,2.973,2.347,2.347,0,0,0,2.69,0,2.539,2.539,0,0,0,1.077-2.975H17.65a4.906,4.906,0,0,1-2.015,4.952M11.853,43.2a.843.843,0,1,1,.849.825.851.851,0,0,1-.849-.825m10.125-2.581H6.816V38.988H21.977Z" transform="translate(347.618 1330.001)" fill="#624198"/><path d="M35.348,24.855a9.247,9.247,0,0,0-5.938-8.208c-.831-.311-1.716-.475-2.624-.72-.113-.809-.234-1.676-.36-2.573l-1.661.241c.065.491.133.924.178,1.36a7.6,7.6,0,0,1,.154,2.086c-.435,2.244-.974,4.469-1.506,6.694A4.187,4.187,0,0,1,19.449,27c-1.164.01-2.326,0-3.489,0h-.869v1.686c1.589,0,3.139.01,4.687-.008a10.1,10.1,0,0,0,1.235-.172c-.063,3.509,1.112,5.821,3.658,7.056a6.356,6.356,0,0,0,7.277-.764c2.83-2.351,3.206-5.328,1.708-8.643h.463c1.021-.008,1.265-.267,1.229-1.306m-3.3,7.378a5.081,5.081,0,0,1-5.334,2.284,5,5,0,0,1-3.943-4.061,9.71,9.71,0,0,1,.006-1.938c.057-1.063.988-1.569,1.542-2.312.057-.075.267-.042.406-.042,1.075,0,2.149,0,3.224,0,1.057,0,2.114-.018,3.169.014a.953.953,0,0,1,.645.315,5.018,5.018,0,0,1,.285,5.742m-6.882-7.8q.773-3.335,1.536-6.64c3.262-.044,6.674,3.256,6.872,6.64Z" transform="translate(363.03 1343.639)" fill="#624198"/><path d="M19.014,10.605a8.459,8.459,0,1,0-8.475,8.423,8.475,8.475,0,0,0,8.475-8.423m-8.479,6.731A6.77,6.77,0,1,1,17.32,10.6a6.79,6.79,0,0,1-6.785,6.739" transform="translate(349.759 1332.147)" fill="#624198"/><path d="M22.725,20.111a2.537,2.537,0,1,0,2.438,2.605,2.546,2.546,0,0,0-2.438-2.605m-.089,3.378a.843.843,0,1,1,.837-.835.847.847,0,0,1-.837.835" transform="translate(368.14 1350.537)" fill="#624198"/><path d="M11.119,7.731c-.485.008-.966,0-1.471,0,.156-1.077.3-2.114.457-3.149.049-.319.02-.6-.3-.752s-.558.006-.772.245Q6.866,6.511,4.7,8.942A.593.593,0,0,0,5.171,10c.481-.008.964,0,1.467,0-.154,1.075-.3,2.112-.457,3.149-.046.317-.018.6.305.752s.558-.008.77-.247q2.165-2.435,4.332-4.863a.592.592,0,0,0-.469-1.057m-3.483,3.79-.065-.032c.085-.588.164-1.178.255-1.767.093-.608-.113-.855-.736-.857h-.8L8.653,6.209l.061.03c-.083.59-.16,1.18-.253,1.769-.093.608.111.855.736.857H10c-.821.922-1.593,1.789-2.363,2.656" transform="translate(352.17 1333.85)" fill="#624198"/><rect width="50.764" height="50" transform="translate(347.618 1330)" fill="none"/></g></svg>