<?xml version="1.0" encoding="utf-8"?><svg xmlns="http://www.w3.org/2000/svg" xmlns:xlink="http://www.w3.org/1999/xlink" width="54.873" height="50" viewBox="0 0 54.873 50"><defs><clipPath id="a"><rect width="54.873" height="50" fill="#634299"/></clipPath></defs><g clip-path="url(#a)"><path d="M54.872,47.2c-.05.129-.106.256-.152.386a3.281,3.281,0,0,1-2.834,2.372A3.184,3.184,0,0,1,48.6,48.394c-.919-1.49-1.763-3.022-2.641-4.537-.1-.167-.2-.331-.333-.546-.217.242-.413.454-.525.573a10.418,10.418,0,0,1,.952,1.9,3.347,3.347,0,0,1-3.268,4.21c-2.5.021-5,.006-7.5.006H11.264a11.719,11.719,0,0,1-11.1-9.358,11.789,11.789,0,0,1,1.157-7.215,62.93,62.93,0,0,1,5.823-9.729.8.8,0,0,1,1.161-.269c.4.283.444.723.127,1.228-1.517,2.4-3.08,4.768-4.527,7.209a15.227,15.227,0,0,0-2.2,5.485A9.077,9.077,0,0,0,4.024,44.93a10.131,10.131,0,0,0,5.929,3.391,5.055,5.055,0,0,0,.852.065q7.287,0,14.58,0c.119,0,.242-.013.408-.021a3.451,3.451,0,0,1,.579-4.239,10.32,10.32,0,0,1-.961-2.153A3.334,3.334,0,0,1,28.8,37.992c3.145-.017,6.29-.006,9.435-.006h.723c-.24-.865-.413-1.678-.69-2.451a39.584,39.584,0,0,0-4.225-7.92A123.722,123.722,0,0,0,26.076,16.79a1.018,1.018,0,0,0-.709-.325c-3.416-.021-6.828-.01-10.239-.023a.852.852,0,0,0-.767.367c-1.1,1.43-2.217,2.847-3.326,4.268-.1.127-.188.263-.294.381a.8.8,0,0,1-1.14.165.779.779,0,0,1-.121-1.142c.927-1.225,1.874-2.436,2.811-3.651.108-.142.215-.283.342-.452a2.954,2.954,0,0,1,.358-5.725c-.125-.175-.233-.323-.34-.471A9.344,9.344,0,0,1,10.568,5,4.841,4.841,0,0,1,12.982.561a3.121,3.121,0,0,1,3.405-.1A1.84,1.84,0,0,0,18.348.5a3.872,3.872,0,0,1,3.845.029A1.7,1.7,0,0,0,24.011.5a3.235,3.235,0,0,1,3.681.185,4.817,4.817,0,0,1,2.095,3,.8.8,0,0,1-.575,1.046.816.816,0,0,1-.963-.636c-.023-.067-.044-.135-.065-.2A3.393,3.393,0,0,0,26.729,1.97a1.683,1.683,0,0,0-1.917-.081,3.2,3.2,0,0,1-3.405.044,2.322,2.322,0,0,0-2.359.01A3.165,3.165,0,0,1,15.693,1.9a1.75,1.75,0,0,0-2.051.142,3.48,3.48,0,0,0-1.319,3.991,9.409,9.409,0,0,0,2.734,4.4.685.685,0,0,0,.413.192c.567.023,1.14.01,1.7.01-.185-1.115-.373-2.2-.538-3.282a.83.83,0,0,1,.588-1.05c.5-.133.894.188.994.767.19,1.052.4,2.1.59,3.153.056.329.208.436.544.421a16.734,16.734,0,0,1,1.711,0c.369.021.559-.079.623-.459.177-1.019.394-2.032.571-3.049.1-.579.413-.911.884-.861a.838.838,0,0,1,.709,1.065c-.163,1.09-.358,2.176-.546,3.295.554,0,1.125.019,1.7-.013a.9.9,0,0,0,.5-.252A9.921,9.921,0,0,0,27.648,7.4a.832.832,0,0,1,.969-.573A.778.778,0,0,1,29.129,8c-.479.89-1.019,1.751-1.555,2.653a.965.965,0,0,0,1.111,0,5.025,5.025,0,0,1,5.873.165c.648.442,1.3.882,1.972,1.292a3.084,3.084,0,0,0,.752.258.808.808,0,0,1,.665.99.764.764,0,0,1-1.038.567,14.032,14.032,0,0,1-2.028-.932c-.573-.319-1.08-.763-1.649-1.1a3.325,3.325,0,0,0-3.672.1c.119.394.21.754.34,1.1a.473.473,0,0,0,.279.246c2.605.673,4.022,2.5,4.816,4.935.242.746.386,1.528.679,2.253a15.5,15.5,0,0,0,1.088,2.128c.288.49.3.948-.075,1.238a.843.843,0,0,1-1.213-.258,8.356,8.356,0,0,1-1.507-3.107c-.188-.634-.342-1.278-.55-1.9a5.266,5.266,0,0,0-3.287-3.624.6.6,0,0,0-.763.221,14.285,14.285,0,0,1-1.444,1.261c.156.2.392.5.627.8a106.23,106.23,0,0,1,9.012,13.028,23.574,23.574,0,0,1,2.759,6.534c.079.363.129.734.2,1.117h2.022c-.35-.617-.682-1.2-1.015-1.776a3.405,3.405,0,0,1,2.482-5.121,3.179,3.179,0,0,1,3.205,1.413c.529.761.959,1.588,1.411,2.4a.786.786,0,0,1-.3,1.109.8.8,0,0,1-1.1-.344c-.4-.656-.767-1.33-1.159-1.99a1.8,1.8,0,1,0-3.114,1.778Q46.4,41.419,49.86,47.4a1.8,1.8,0,1,0,3.11-1.784Q51.16,42.45,49.331,39.3a2.738,2.738,0,0,1-.261-.525.727.727,0,0,1,.354-.917.759.759,0,0,1,1.013.179,2.465,2.465,0,0,1,.254.406c1.2,2.072,2.4,4.139,3.583,6.219a12.97,12.97,0,0,1,.6,1.359ZM35.786,39.594c-2.324,0-4.643-.006-6.967,0a1.784,1.784,0,0,0-1.869,1.68c-.079,1.132.759,1.919,2.065,1.919q6.728.009,13.455,0a3.332,3.332,0,0,0,.746-.073,1.482,1.482,0,0,0,1.007-2.276,2.893,2.893,0,0,1-.24-.419,1.307,1.307,0,0,0-1.444-.84c-2.251.013-4.5,0-6.753,0m-.052,8.793c2.322,0,4.645,0,6.969,0a1.793,1.793,0,0,0,1.751-1.165,1.774,1.774,0,0,0-1.709-2.405c-2.251-.019-4.5-.006-6.755-.006-2.378,0-4.754.006-7.132,0a1.789,1.789,0,1,0-.094,3.574c2.32.017,4.643,0,6.969.006M20.241,14.841h.748c1.984,0,3.966.006,5.95,0A1.262,1.262,0,0,0,28.3,13.416c-.065-.736-.619-1.165-1.523-1.167q-6.54,0-13.078,0a2.894,2.894,0,0,0-.427.019,1.279,1.279,0,0,0-1.1,1.311,1.263,1.263,0,0,0,1.371,1.259c2.234.008,4.464,0,6.7,0" transform="translate(0 -0.001)" fill="#634299"/><path d="M13.228,16.763H9.987c-.5,0-1,0-1.5,0-.75,0-1.1-.254-1.1-.788-.008-.55.361-.819,1.134-.819q2.035,0,4.072,0h.588a2.165,2.165,0,0,0-2.092-1.646c-.948-.019-1.9.027-2.841-.029a1.107,1.107,0,0,1-.765-.456.86.86,0,0,1,.071-.782,1.007,1.007,0,0,1,.723-.331c2.645-.023,5.289-.019,7.934-.013a.778.778,0,0,1,.879.79.8.8,0,0,1-.873.811c-.636.017-1.271,0-1.917,0,.2.515.365.98.569,1.428a.5.5,0,0,0,.358.215c.354.031.715-.006,1.071.021a.777.777,0,0,1,.792.832.708.708,0,0,1-.8.744c-.984-.127-1.448.231-1.863,1.163a3.708,3.708,0,0,1-3.458,2.14c-.333.015-.669,0-1.115,0,.311.4.554.719.8,1.032q1.732,2.185,3.468,4.364c.056.069.113.14.165.213a.835.835,0,0,1-.077,1.232.827.827,0,0,1-1.175-.229c-.519-.638-1.023-1.286-1.534-1.928-1.067-1.344-2.128-2.691-3.2-4.027a1.345,1.345,0,0,1-.24-1.54,1.308,1.308,0,0,1,1.325-.725c.517.013,1.038.025,1.553,0a2.51,2.51,0,0,0,2.288-1.669" transform="translate(8.005 12.891)" fill="#634299"/></g></svg>