<?xml version="1.0" encoding="utf-8"?><svg xmlns="http://www.w3.org/2000/svg" width="17.257" height="17.257" viewBox="0 0 17.257 17.257"><path d="M15.408,32H1.849A1.849,1.849,0,0,0,0,33.849V47.408a1.849,1.849,0,0,0,1.849,1.849H7.138V43.39H4.711V40.629H7.138v-2.1a3.371,3.371,0,0,1,3.608-3.716,14.7,14.7,0,0,1,2.139.186v2.35h-1.2a1.381,1.381,0,0,0-1.557,1.492v1.793h2.649l-.424,2.762H10.123v5.867h5.285a1.849,1.849,0,0,0,1.849-1.849V33.849A1.849,1.849,0,0,0,15.408,32Z" transform="translate(0 -32)" fill="#45247c"/></svg>