<?xml version="1.0" encoding="utf-8"?><svg xmlns="http://www.w3.org/2000/svg" xmlns:xlink="http://www.w3.org/1999/xlink" width="39.063" height="39.08" viewBox="0 0 39.063 39.08"><defs><clipPath id="a"><rect width="39.063" height="39.08" fill="none"/></clipPath></defs><g transform="translate(0 0)" clip-path="url(#a)"><path d="M36.826,14.925l-.027-.1a.918.918,0,0,1-.031-.161,17.551,17.551,0,0,0-1.176-5.3c-.333-.839-.744-1.658-1.14-2.45l-.246-.5A.794.794,0,1,0,32.8,7.15c.042.094.094.185.146.277l.074.132a17.551,17.551,0,0,1,1.359,14.049A17.845,17.845,0,0,1,18.6,34.043a17.6,17.6,0,0,1-10.66-2.582c-.329-.2-.653-.424-.966-.642l-.03-.017c.359-.041.709-.058,1.085-.072a1.059,1.059,0,0,0,.761-.287.734.734,0,0,0,.182-.554c-.022-.478-.362-.759-.914-.759l-.064,0c-1.071.038-2.139.08-3.21.127a.865.865,0,0,0-.7.316.875.875,0,0,0-.106.767c.063.255.138.507.213.759l.26.913c.149.521.3,1.044.451,1.563a.784.784,0,0,0,.968.568.8.8,0,0,0,.573-1c-.027-.11-.058-.216-.091-.323l-.169-.6a19.167,19.167,0,0,0,7.831,3.191c.46.078.924.139,1.387.2l.69.089,2.46,0c.033-.008.063-.017.1-.027a.543.543,0,0,1,.127-.03A18.673,18.673,0,0,0,27.364,32.9a19.239,19.239,0,0,0,9.17-13.4c.089-.5.152-1.008.211-1.5.028-.224.053-.445.085-.669l0-.013Z" transform="translate(2.232 3.376)"/><path d="M3.93,28.363l-.061-.1A17.648,17.648,0,0,1,2.2,15.041,17.869,17.869,0,0,1,18.2,1.683a17.668,17.668,0,0,1,11.451,3.07l.271.191-.108,0c-.407.017-.783.031-1.162.053a.852.852,0,0,0-.67.362.757.757,0,0,0-.088.669.8.8,0,0,0,.845.567l.061,0,1.426-.056q.89-.035,1.782-.072a.918.918,0,0,0,.747-.329.949.949,0,0,0,.08-.833c-.272-.969-.553-1.934-.831-2.9l-.042-.144a.821.821,0,0,0-.994-.686.76.76,0,0,0-.485.351.982.982,0,0,0-.058.756c.066.244.135.488.205.742l.02.07A19.177,19.177,0,0,0,14.852.6a19.265,19.265,0,0,0-13.22,11.16A19.432,19.432,0,0,0,2.563,29.2a2.03,2.03,0,0,0,.128.21.821.821,0,0,0,.658.348.8.8,0,0,0,.726-1.1,1.841,1.841,0,0,0-.146-.288" transform="translate(0 0)"/><path d="M21.679,4.767A13.941,13.941,0,0,0,8.6,5.632c-.028.016-.055.033-.081.049a1.416,1.416,0,0,0,.028-.194.744.744,0,0,0-.609-.847.719.719,0,0,0-.9.482C6.76,6,6.53,6.811,6.334,7.6a.746.746,0,0,0,.11.639.791.791,0,0,0,.609.305c.788.044,1.614.075,2.458.091h.019a.785.785,0,0,0,.8-.766.8.8,0,0,0-.72-.808c-.078-.011-.158-.019-.238-.025A12.223,12.223,0,0,1,18.4,5.378a12.213,12.213,0,0,1,8.8,6.915,12.254,12.254,0,0,1-.343,11.218l-.038.064a2.308,2.308,0,0,0-.163.33.745.745,0,0,0,.359.975A.742.742,0,0,0,28,24.7a1.534,1.534,0,0,0,.207-.324,14.008,14.008,0,0,0-6.529-19.6" transform="translate(3.567 2.001)"/><path d="M11.139,27.64a13.953,13.953,0,0,0,12.275.252c.456-.208.9-.456,1.335-.7.08-.045.16-.089.241-.133-.009.05-.019.1-.023.153a.746.746,0,0,0,.586.861.72.72,0,0,0,.93-.49c.265-.836.5-1.658.694-2.439a.737.737,0,0,0-.7-.963c-.8-.045-1.614-.075-2.5-.092h-.016a.777.777,0,0,0-.788.737.787.787,0,0,0,.7.831c.085.013.171.022.261.028-.019.013-.039.025-.056.034A12.416,12.416,0,0,1,5.836,11.06a16.016,16.016,0,0,1,.686-1.534c.083-.168.164-.335.244-.5a.832.832,0,0,0-.249-1.176.816.816,0,0,0-1.148.39L5.3,8.37a13.749,13.749,0,0,0-1.5,9.471,13.921,13.921,0,0,0,7.348,9.8" transform="translate(1.992 4.376)"/><path d="M16.194,11.018a.7.7,0,0,0,.747-.712.685.685,0,0,0-.756-.7h-.359c-1.563,0-3.123-.006-4.684.006a.834.834,0,0,0-.617.294.723.723,0,0,0-.05.714.9.9,0,0,0,.639.382c.377.022.758.017,1.127.017q.343,0,.686,0a1.2,1.2,0,0,1,1.058.656H11.3a1,1,0,0,0-.739.233.65.65,0,0,0-.177.485c0,.313.161.689.894.694h2.691a1.342,1.342,0,0,1-1.14.67c-.323.02-.653.011-.972,0h-.042a1.011,1.011,0,0,0-.98.568,1.043,1.043,0,0,0,.174,1.188q.679.841,1.348,1.691l.935,1.179c.241.307.482.614.728.916a.793.793,0,0,0,.607.318.675.675,0,0,0,.409-.139.726.726,0,0,0,.088-1.057L12.81,15.517c-.086-.108-.172-.218-.263-.337.108,0,.213,0,.315,0A2.556,2.556,0,0,0,15.231,13.7c.241-.545.474-.689.98-.626a.6.6,0,0,0,.492-.136.719.719,0,0,0,.236-.52.692.692,0,0,0-.684-.733c-.116-.008-.23-.006-.344-.006a2.7,2.7,0,0,1-.337-.008.357.357,0,0,1-.064-.023c-.092-.2-.171-.406-.255-.626h.077c.3,0,.578,0,.863,0" transform="translate(5.873 5.434)"/></g></svg>