<?xml version="1.0" encoding="utf-8"?><svg xmlns="http://www.w3.org/2000/svg" xmlns:xlink="http://www.w3.org/1999/xlink" width="49.293" height="50" viewBox="0 0 49.293 50"><defs><clipPath id="a"><rect width="49.293" height="50" fill="none"/></clipPath></defs><g transform="translate(-547 -937)"><g transform="translate(547 937)" clip-path="url(#a)"><path d="M3.942,36.206H17.181c.013-.183.033-.333.033-.484,0-2.9.01-5.8-.013-8.7a.971.971,0,0,0-.35-.7A8.664,8.664,0,0,1,15.605,13.3a12.079,12.079,0,0,1,2.28-1.855c1.253-.815,2.374-.16,2.386,1.344q.025,2.87,0,5.74a.853.853,0,0,0,.4.742,2.214,2.214,0,0,0,3.21.008.859.859,0,0,0,.411-.736c-.017-1.817-.008-3.633-.008-5.45,0-.175,0-.348.01-.521a1.4,1.4,0,0,1,2.217-1.232,8.851,8.851,0,0,1,4.664,6.438,8.313,8.313,0,0,1-3.453,8.537.889.889,0,0,0-.361.579c-.021,3.034-.013,6.069-.008,9.1a1.225,1.225,0,0,0,.038.206H40.606V16.524c0-.154,0-.308,0-.463.015-.679.331-1.057.884-1.057s.861.358.861,1.063q0,10.407,0,20.816c0,.794-.3,1.1-1.075,1.1q-7.306.006-14.61,0c-.777,0-1.063-.273-1.065-1.038-.008-3.518,0-7.036-.008-10.552a1.2,1.2,0,0,1,.646-1.071,6.959,6.959,0,0,0,3.32-6.369c-.108-2.484-1.43-4.289-3.533-5.777v.738c0,1.759-.017,3.518.008,5.277a1.258,1.258,0,0,1-.725,1.259c-.817.438-1.611.917-2.405,1.392a1.106,1.106,0,0,1-1.248,0c-.811-.49-1.626-.969-2.455-1.423a1.18,1.18,0,0,1-.679-1.165c.021-1.759.008-3.518.008-5.277v-.7a2.285,2.285,0,0,0-.344.146,7.033,7.033,0,0,0-.019,11.788,1.617,1.617,0,0,1,.807,1.519c-.027,3.324-.01,6.648-.013,9.972,0,1.067-.221,1.282-1.3,1.282H3.459c-1.015,0-1.261-.248-1.261-1.263q0-10.235,0-20.468a4.275,4.275,0,0,1,.008-.463.8.8,0,0,1,.784-.782.814.814,0,0,1,.923.7,2.672,2.672,0,0,1,.029.634V36.206Z" transform="translate(2.381 12.015)" fill="#624198"/><path d="M24.655,9.151l-6.623,5.31c-3.979,3.191-7.945,6.4-11.95,9.556a5.46,5.46,0,0,1-2.1,1.019,3.017,3.017,0,0,1-3.193-1.3,3.555,3.555,0,0,1-.417-3.829,4.82,4.82,0,0,1,1.307-1.659Q12.749,9.307,23.863.423c.709-.567.89-.563,1.609.013Q36.523,9.3,47.576,18.173a3.947,3.947,0,0,1,1.6,4.183,3.431,3.431,0,0,1-5.556,1.976c-1.011-.744-1.969-1.557-2.949-2.343Q32.9,15.752,25.122,9.513c-.135-.108-.275-.213-.467-.363M1.684,21.328a1.937,1.937,0,0,0,1.065,1.8,1.568,1.568,0,0,0,1.8-.119c.254-.175.494-.371.736-.565q9.247-7.412,18.5-14.826c.773-.619,1-.619,1.763-.006q8.95,7.181,17.9,14.362c.438.35.865.717,1.332,1.021a1.709,1.709,0,0,0,2.19-.135,1.81,1.81,0,0,0,.425-2.265,3.968,3.968,0,0,0-.942-1.075Q35.817,10.967,25.17,2.423a.659.659,0,0,0-1.011-.015q-5.54,4.486-11.115,8.933-5.13,4.117-10.262,8.234a2.521,2.521,0,0,0-1.1,1.753" transform="translate(0 0)" fill="#624198"/></g></g></svg>