<?xml version="1.0" encoding="utf-8"?><svg xmlns="http://www.w3.org/2000/svg" xmlns:xlink="http://www.w3.org/1999/xlink" width="59.815" height="59.815" viewBox="0 0 59.815 59.815"><defs><clipPath id="a"><path d="M45.695,19.956,25.04,40.608l-5.447-5.449a3.47,3.47,0,0,0-4.907,4.907l7.9,7.9a3.469,3.469,0,0,0,4.907,0L50.6,24.862a3.469,3.469,0,1,0-4.907-4.906" transform="translate(-13.67 -18.939)" fill="rgba(0,0,0,0)"/></clipPath><linearGradient id="b" x1="-0.302" y1="1.437" x2="-0.279" y2="1.437" gradientUnits="objectBoundingBox"><stop offset="0" stop-color="#d22727"/><stop offset="1" stop-color="#012650"/></linearGradient><clipPath id="c"><rect width="59.815" height="59.815" fill="rgba(0,0,0,0)"/></clipPath><linearGradient id="d" x1="-0.007" y1="1.007" x2="0.007" y2="1.007" xlink:href="#b"/></defs><g transform="translate(12 16.626)"><g clip-path="url(#a)"><rect width="38.625" height="30.046" transform="translate(-0.339 0)" fill="url(#b)"/></g></g><g transform="translate(0 0)"><g clip-path="url(#c)"><path d="M50.6,19.955a3.468,3.468,0,0,0-4.907,0L25.04,40.607l-5.448-5.449a3.47,3.47,0,0,0-4.907,4.907l7.9,7.9a3.472,3.472,0,0,0,4.907,0L50.6,24.861A3.469,3.469,0,0,0,50.6,19.955Z" transform="translate(-1.669 -2.313)" fill="#634299" stroke="#fff" stroke-miterlimit="10" stroke-width="2"/><path d="M59,29.968h.439A29.468,29.468,0,1,1,29.968.5,29.469,29.469,0,0,1,59.437,29.968h-.878A28.591,28.591,0,1,0,29.968,58.559,28.627,28.627,0,0,0,58.559,29.968Z" transform="translate(-0.061 -0.061)" fill="url(#d)"/></g></g></svg>