<?xml version="1.0" encoding="utf-8"?><svg xmlns="http://www.w3.org/2000/svg" xmlns:xlink="http://www.w3.org/1999/xlink" width="31.31" height="33.647" viewBox="0 0 31.31 33.647"><defs><clipPath id="a"><path d="M16.824,0A16.824,16.824,0,1,0,30.8,26.183l-1.643-1.1A14.846,14.846,0,1,1,27.792,6.833l-2.52-.183-.144,1.975,5.763.42.419-5.763-1.975-.143-.164,2.267A16.8,16.8,0,0,0,16.824,0Z"/></clipPath><clipPath id="b"><rect width="31.31" height="33.647" transform="translate(0 0)" fill="#192b40"/></clipPath></defs><g transform="translate(-1157 -3333)"><g transform="translate(1157 3333)"><g clip-path="url(#a)"><rect width="31.31" height="33.647" transform="translate(0 0)"/></g><g clip-path="url(#b)"><path d="M8.56,18.683c0-.637.637-1.05,1.541-1.508a2.556,2.556,0,0,0,1.764-2.423c0-1.53-.982-2.479-2.747-2.479A4.3,4.3,0,0,0,5.98,13.557l1.106,1.184a2.693,2.693,0,0,1,1.787-.882.858.858,0,0,1,.96.916c0,.938-.927,1.34-1.876,1.764-1.608.726-2,1.686-2,3.752h5.919V18.683Z"/><path d="M17.594,17.019V12.351H16.365L12.68,17.019v1.6h3.127V20.28h1.787V18.616h.982v-1.6Zm-1.586,0H14.456l1.552-1.988Z"/><path d="M23.412,14.317a2.328,2.328,0,0,0-2.032,1.094V12.139H19.593v8.152H21.38V16.93a1.53,1.53,0,0,1,1.239-1.038c.514,0,.849.346.849,1.1v3.294h1.787V16.539c0-1.016-.269-2.222-1.843-2.222"/></g></g></g></svg>