<?xml version="1.0" encoding="utf-8"?><svg xmlns="http://www.w3.org/2000/svg" width="17.257" height="17.257" viewBox="0 0 17.257 17.257"><path d="M8.629,38.575a2.055,2.055,0,1,0,2.057,2.053A2.055,2.055,0,0,0,8.629,38.575ZM13.432,37a2.08,2.08,0,0,0-1.171-1.171,13.67,13.67,0,0,0-3.632-.248A13.568,13.568,0,0,0,5,35.825,2.08,2.08,0,0,0,3.824,37a13.7,13.7,0,0,0-.248,3.634,13.615,13.615,0,0,0,.25,3.631A2.08,2.08,0,0,0,5,45.432a13.672,13.672,0,0,0,3.633.248,13.565,13.565,0,0,0,3.632-.248,2.08,2.08,0,0,0,1.171-1.171,13.586,13.586,0,0,0,.248-3.634A13.648,13.648,0,0,0,13.436,37Zm-4.8,6.791a3.155,3.155,0,1,1,2.235-.924,3.159,3.159,0,0,1-2.235.924Zm3.289-5.713a.736.736,0,1,1,.522-.216.737.737,0,0,1-.522.216ZM15.408,32H1.849A1.849,1.849,0,0,0,0,33.849V47.408a1.849,1.849,0,0,0,1.849,1.849H15.408a1.849,1.849,0,0,0,1.849-1.849V33.849A1.849,1.849,0,0,0,15.408,32Zm-.659,11.171a3.665,3.665,0,0,1-1,2.581,3.667,3.667,0,0,1-2.581,1c-1.017.057-4.068.057-5.085,0a3.672,3.672,0,0,1-2.581-1,3.654,3.654,0,0,1-1-2.581c-.057-1.018-.057-4.068,0-5.085a3.653,3.653,0,0,1,1-2.581,3.674,3.674,0,0,1,2.581-.993c1.017-.057,4.068-.057,5.085,0a3.667,3.667,0,0,1,2.581,1,3.667,3.667,0,0,1,1,2.583C14.807,39.1,14.807,42.154,14.749,43.171Z" transform="translate(0 -32)" fill="#45247c"/></svg>