<?xml version="1.0" encoding="utf-8"?><svg xmlns="http://www.w3.org/2000/svg" width="16" height="16" viewBox="0 0 16 16"><path d="M8,38.1A1.9,1.9,0,1,0,9.907,40,1.905,1.905,0,0,0,8,38.1Zm4.454-1.464a1.929,1.929,0,0,0-1.086-1.086A12.674,12.674,0,0,0,8,35.316a12.58,12.58,0,0,0-3.368.23,1.929,1.929,0,0,0-1.086,1.086A12.7,12.7,0,0,0,3.316,40a12.624,12.624,0,0,0,.231,3.367,1.929,1.929,0,0,0,1.086,1.086A12.676,12.676,0,0,0,8,44.684a12.576,12.576,0,0,0,3.368-.23,1.929,1.929,0,0,0,1.086-1.086A12.6,12.6,0,0,0,12.685,40a12.654,12.654,0,0,0-.228-3.367ZM8,42.929a2.925,2.925,0,1,1,2.072-.857A2.929,2.929,0,0,1,8,42.929Zm3.049-5.3a.682.682,0,1,1,.484-.2.684.684,0,0,1-.484.2ZM14.286,32H1.714A1.714,1.714,0,0,0,0,33.714V46.286A1.714,1.714,0,0,0,1.714,48H14.286A1.714,1.714,0,0,0,16,46.286V33.714A1.714,1.714,0,0,0,14.286,32Zm-.611,10.357a3.4,3.4,0,0,1-.923,2.393,3.4,3.4,0,0,1-2.393.923c-.943.053-3.771.053-4.714,0a3.4,3.4,0,0,1-2.393-.923,3.388,3.388,0,0,1-.923-2.393c-.053-.944-.053-3.771,0-4.714a3.387,3.387,0,0,1,.923-2.393,3.406,3.406,0,0,1,2.393-.921c.943-.053,3.771-.053,4.714,0a3.4,3.4,0,0,1,2.393.923,3.4,3.4,0,0,1,.923,2.395C13.729,38.586,13.729,41.414,13.675,42.357Z" transform="translate(0 -32)" fill="#fff"/></svg>