<?xml version="1.0" encoding="UTF-8"?><svg xmlns="http://www.w3.org/2000/svg" xmlns:xlink="http://www.w3.org/1999/xlink" width="74" height="74" viewBox="0 0 74 74"><defs><filter id="a" x="0" y="0" width="74" height="74" filterUnits="userSpaceOnUse"><feOffset dy="3" input="SourceAlpha"/><feGaussianBlur stdDeviation="3" result="b"/><feFlood flood-opacity="0.161"/><feComposite operator="in" in2="b"/><feComposite in="SourceGraphic"/></filter><clipPath id="c"><rect width="34.166" height="40" fill="#fff"/></clipPath></defs><g transform="translate(9 6)"><g transform="matrix(1, 0, 0, 1, -9, -6)" filter="url(#a)"><path d="M6,0H50a6,6,0,0,1,6,6V50a6,6,0,0,1-6,6H6a6,6,0,0,1-6-6V6A6,6,0,0,1,6,0Z" transform="translate(9 6)" fill="#ac9ccc"/></g><g transform="translate(11 8)"><g transform="translate(0 0)" clip-path="url(#c)"><path d="M21.5,0a9.387,9.387,0,0,0-6.079,3.29,8.156,8.156,0,0,0-1.989,6.335,7.918,7.918,0,0,0,6.132-3.132A8.811,8.811,0,0,0,21.5,0" transform="translate(3.079 0.001)" fill="#fff"/><path d="M33.009,11.664a10.131,10.131,0,0,0-7.643-4.058c-3.588,0-5.1,1.718-7.6,1.718-2.57,0-4.522-1.712-7.625-1.712a10.376,10.376,0,0,0-8.35,5.046C-1.1,17.144-.6,25.576,4.085,32.759c1.678,2.57,3.915,5.46,6.847,5.484,2.607.025,3.343-1.673,6.875-1.69s4.2,1.712,6.8,1.685c2.932-.022,5.295-3.225,6.971-5.795a28.768,28.768,0,0,0,2.582-4.851c-6.782-2.582-7.869-12.227-1.156-15.929" transform="translate(0 1.756)" fill="#fff"/></g></g></g></svg>