<?xml version="1.0" encoding="utf-8"?><svg xmlns="http://www.w3.org/2000/svg" xmlns:xlink="http://www.w3.org/1999/xlink" width="76.844" height="50" viewBox="0 0 76.844 50"><defs><clipPath id="a"><rect width="76.844" height="50" fill="none"/></clipPath></defs><g clip-path="url(#a)"><path d="M3.23,30.319H73.552c.024-.534.062-1.008.062-1.486q.008-9.856,0-19.715c-.005-3.937-1.9-5.811-5.856-5.811H24.714c-.4,0-.806.013-1.208-.011a1.5,1.5,0,0,1-1.591-1.615A1.521,1.521,0,0,1,23.547.1c.31-.022.626-.008.938-.008q21.723,0,43.448,0c5.479,0,8.887,3.362,8.9,8.838q.028,16.093,0,32.188c-.008,5.519-3.357,8.876-8.838,8.879q-29.569.012-59.138,0C3.384,49.991.005,46.6,0,41.118Q0,25.025.005,8.93c0-5.792,4.371-9.6,10.106-8.83a1.512,1.512,0,0,1,1.5,1.577,1.5,1.5,0,0,1-1.585,1.618c-.669.038-1.343-.011-2.011.024A4.884,4.884,0,0,0,3.254,8.04C3.19,15.414,3.23,22.791,3.23,30.319M73.525,41.412H3.3a4.861,4.861,0,0,0,5.072,5.355c7.372.027,14.741.011,22.112.011q18.892,0,37.789-.005c3.292,0,5.358-2.09,5.25-5.36m.011-7.717H3.316v4.328H73.536Z" transform="translate(0 0.001)" fill="#624198"/><path d="M49.28,10.573a9.455,9.455,0,0,0-4.551-6.525,9.432,9.432,0,0,0-7.868-.922A13.7,13.7,0,0,0,31.249,7c-.124-.119-.243-.229-.364-.348-.488-.461-.971-.922-1.48-1.343A10.4,10.4,0,0,0,21.489,2.7,9.839,9.839,0,0,0,13.26,9.395c-.129.431-.218.874-.3,1.316-.04.2-.078.391-.121.585l-.011.046.008,1.666.135.744A9.476,9.476,0,0,0,17.3,20.137a9.416,9.416,0,0,0,7.6,1.205,12.992,12.992,0,0,0,5.468-3.368c.213-.2.439-.4.663-.58l.008-.011c.253.245.531.512.814.779a11.491,11.491,0,0,0,7.027,3.478c.275.022.553.032.828.032a9.561,9.561,0,0,0,3.845-.806,1.134,1.134,0,0,0,.642-1.5,1.151,1.151,0,0,0-1.5-.623,2.886,2.886,0,0,0-.3.116,7.348,7.348,0,0,1-5.2.075,10.134,10.134,0,0,1-4.136-2.85c-.963-1.043-1.89-2.168-2.785-3.254l-1.227-1.483a21.247,21.247,0,0,0-2.812-3.009,5.4,5.4,0,0,0-5.263-1.283,5.58,5.58,0,0,0-3.354,2.734,5.018,5.018,0,0,0-.356,3.923,5.515,5.515,0,0,0,2.828,3.206,5.376,5.376,0,0,0,4.152.262A8.655,8.655,0,0,0,27.4,14.965c.283-.291.558-.593.839-.909l.011-.005,1.227,1.513a14.05,14.05,0,0,1-2.578,2.3,7.091,7.091,0,0,1-7.814.628,7.184,7.184,0,0,1-3.877-7.382,7.5,7.5,0,0,1,8.919-6,9.438,9.438,0,0,1,4.263,2.346,33.55,33.55,0,0,1,3.745,4.185l.628.787a23.392,23.392,0,0,0,3.217,3.519,5.473,5.473,0,0,0,9.251-3.481,5.462,5.462,0,0,0-7.49-5.225,10.023,10.023,0,0,0-3.279,2.5c-.159.173-.313.351-.469.528L32.765,8.758a14.03,14.03,0,0,1,2.61-2.327A7.237,7.237,0,0,1,41.638,5.21a7.319,7.319,0,0,1,5.471,7.226,7.023,7.023,0,0,1-.558,2.472,1.622,1.622,0,0,0-.073.979,1.027,1.027,0,0,0,1.054.763h.008a1.15,1.15,0,0,0,1.079-.75,9.275,9.275,0,0,0,.661-5.328M35.464,12.1a10.873,10.873,0,0,1,2.777-2.551,2.98,2.98,0,0,1,3.063.011,3.106,3.106,0,0,1,1.629,2.591,3.232,3.232,0,0,1-2.65,2.979,2.939,2.939,0,0,1-2.268-.534,12.411,12.411,0,0,1-2.551-2.5m-8.66.075a10.476,10.476,0,0,1-2.785,2.57,2.865,2.865,0,0,1-3.16-.057,2.86,2.86,0,0,1-1.54-2.64,3.221,3.221,0,0,1,2.626-2.866,2.712,2.712,0,0,1,.564-.054,3.335,3.335,0,0,1,2.259,1c.547.493,1.052,1.022,1.585,1.577.148.159.3.315.45.469" transform="translate(21.752 4.494)" fill="#624198"/><path d="M25.482,8.116a.694.694,0,1,0,.688.682.7.7,0,0,0-.688-.682" transform="translate(42.035 13.767)" fill="#624198"/><path d="M7.866,7.341H3.857a1.58,1.58,0,1,1,0-3.16H7.866a1.58,1.58,0,0,1,0,3.16" transform="translate(3.857 7.092)" fill="#624198"/><path d="M16.351,7.341H7.173a1.58,1.58,0,0,1,0-3.16h9.178a1.58,1.58,0,0,1,0,3.16" transform="translate(9.487 7.092)" fill="#624198"/><path d="M19.474,6.569H3.854a1.581,1.581,0,0,0,0,3.163H25.529a1.581,1.581,0,0,0,0-3.163Z" transform="translate(3.857 11.143)" fill="#624198"/></g></svg>