<?xml version="1.0" encoding="utf-8"?><svg xmlns="http://www.w3.org/2000/svg" width="17.257" height="17.257" viewBox="0 0 17.257 17.257"><path d="M16.024,32H1.229A1.238,1.238,0,0,0,0,33.244V48.013a1.238,1.238,0,0,0,1.229,1.244h14.8a1.241,1.241,0,0,0,1.233-1.244V33.244A1.241,1.241,0,0,0,16.024,32ZM5.216,46.792H2.658V38.556H5.22v8.236Zm-1.279-9.36A1.483,1.483,0,1,1,5.42,35.948,1.484,1.484,0,0,1,3.937,37.431ZM14.8,46.792H12.246V42.786c0-.955-.019-2.184-1.329-2.184-1.333,0-1.537,1.04-1.537,2.115v4.075H6.822V38.556H9.276v1.125H9.31a2.694,2.694,0,0,1,2.423-1.329c2.589,0,3.07,1.706,3.07,3.925Z" transform="translate(0 -32)" fill="#45247c"/></svg>