<?xml version="1.0" encoding="utf-8"?><svg xmlns="http://www.w3.org/2000/svg" xmlns:xlink="http://www.w3.org/1999/xlink" width="46.784" height="50" viewBox="0 0 46.784 50"><defs><clipPath id="a"><rect width="46.784" height="50" fill="none"/></clipPath></defs><g transform="translate(0 0)"><g transform="translate(0 0)" clip-path="url(#a)"><path d="M45.071,8.259c-1.9-.371-3.749-.692-5.579-1.1A78.7,78.7,0,0,1,23.717,1.9a.958.958,0,0,0-.709.015A83.958,83.958,0,0,1,4.37,7.763c-.884.169-1.776.3-2.7.448,0,.581.006,1.136,0,1.69-.01.594-.308.919-.827.921S.014,10.5.006,9.911C0,9.165,0,8.417,0,7.669c0-.684.225-.938.9-1.036A79.262,79.262,0,0,0,22.84.124a1.242,1.242,0,0,1,1.136.029,79.944,79.944,0,0,0,19.78,6.154c.717.127,1.442.215,2.161.331a.841.841,0,0,1,.821.95c0,6.156.129,12.315-.044,18.465-.233,8.245-4.014,14.6-10.887,19.111a32.737,32.737,0,0,1-12.009,4.8,3.783,3.783,0,0,1-1.482-.117A32.174,32.174,0,0,1,8.207,43.134a22.218,22.218,0,0,1-8-14.914,27.07,27.07,0,0,1-.192-2.964C-.009,21.345,0,17.433,0,13.521a1.764,1.764,0,0,1,.015-.365.762.762,0,0,1,.8-.675.762.762,0,0,1,.84.686,3.09,3.09,0,0,1,.017.521c0,4-.044,8,.019,12A20.931,20.931,0,0,0,5.816,38.243a24.735,24.735,0,0,0,8.791,7.126,33.292,33.292,0,0,0,8.022,2.859,3.728,3.728,0,0,0,1.69-.052,29.775,29.775,0,0,0,14.733-7.77,20.013,20.013,0,0,0,5.811-12.234,35.081,35.081,0,0,0,.2-3.745c.021-5.181.008-10.362.008-15.543V8.259" transform="translate(0 0)" fill="#624198"/><path d="M19.05,4.778A15.049,15.049,0,0,1,33.979,18.454a14.83,14.83,0,0,1-1.6,8.274c-.317.627-.817.792-1.307.448a.8.8,0,0,1-.2-1.153,14.069,14.069,0,0,0,1.344-4.089,13.35,13.35,0,1,0-14.6,11.16,13.209,13.209,0,0,0,11-3.943,1.487,1.487,0,0,1,.925-.429.879.879,0,0,1,.638.552,1.116,1.116,0,0,1-.246.873,13.684,13.684,0,0,1-3.6,2.814A15.02,15.02,0,1,1,17.544,4.886c.5-.048,1-.073,1.507-.108" transform="translate(4.338 5.179)" fill="#624198"/><path d="M18.895,13.005c1.338,0,2.605,0,3.87,0,.879,0,1.138.265,1.138,1.157q0,2.216,0,4.433c0,.809-.283,1.086-1.1,1.088-1.282,0-2.563,0-3.9,0v3.728c0,1.063-.215,1.28-1.278,1.28q-2.163,0-4.327,0c-.788,0-1.069-.283-1.071-1.065,0-1.286,0-2.572,0-3.943h-.511c-1.146,0-2.295,0-3.441,0-.759,0-1.052-.29-1.055-1.027q-.009-2.323,0-4.641c0-.709.3-1,1.025-1,1.3-.006,2.6,0,3.956,0,.008-.19.023-.356.023-.523,0-1.182,0-2.363,0-3.545A.838.838,0,0,1,13.155,8q2.4-.013,4.8,0c.634,0,.938.327.94.984.006,1.319,0,2.636,0,4.022M8.9,18.013c1.365,0,2.682,0,4,0,.679,0,.98.306.986.99.006.729,0,1.461,0,2.19v1.782h3.337c0-1.292,0-2.543,0-3.793,0-.925.246-1.171,1.171-1.171h3.8V14.671c-1.348,0-2.666,0-3.983,0-.682,0-.984-.306-.992-.986s0-1.39,0-2.084V9.708H13.889c0,1.346,0,2.649,0,3.951,0,.711-.3,1-1.023,1.011-.19,0-.381,0-.573,0H8.9Z" transform="translate(7.815 8.665)" fill="#624198"/></g></g></svg>