<?xml version="1.0" encoding="utf-8"?><svg xmlns="http://www.w3.org/2000/svg" xmlns:xlink="http://www.w3.org/1999/xlink" width="63.707" height="50" viewBox="0 0 63.707 50"><defs><clipPath id="a"><rect width="63.707" height="50" fill="none"/></clipPath></defs><g clip-path="url(#a)"><path d="M13.432,0H50.308s3.41,0,4.5.043A1.509,1.509,0,0,1,56.272.8c2.34,3.533,4.714,7.045,7.048,10.583a2.437,2.437,0,0,1,.374,1.25,30.77,30.77,0,0,1-.119,4.114,5.534,5.534,0,0,1-2.64,3.993.943.943,0,0,0-.488.919c.019,3.181.01,6.362.01,9.543,0,.16,0,.317,0,.474-.014.774-.417,1.252-1.04,1.236-.6-.019-.986-.479-.988-1.217q-.007-4.568,0-9.138v-.826a6.313,6.313,0,0,1-5.988-2.69,6.194,6.194,0,0,1-5.117,2.71,6.117,6.117,0,0,1-5.126-2.669,6.323,6.323,0,0,1-10.326,0,6.223,6.223,0,0,1-10.243-.029,6.235,6.235,0,0,1-10.279,0,6.292,6.292,0,0,1-6,2.667v25.11c0,1.029.124,1.148,1.179,1.148.7,0,1.4,0,2.207,0v-.8q0-9.882,0-19.762c0-1.557.61-2.169,2.167-2.169q6.5,0,13,0c1.543,0,2.162.626,2.162,2.181q0,9.814,0,19.629v.919h.729q15.264,0,30.529,0c.957,0,1.1-.143,1.1-1.083V37.207c0-.181,0-.362,0-.543a1.014,1.014,0,1,1,2.024-.019c.017.426,0,.857,0,1.286,0,2.84-.062,5.686.024,8.526.05,1.674-.455,2.89-2.055,3.543H5.353c-.048-.04-.088-.1-.145-.121A2.751,2.751,0,0,1,3.315,47c.012-8.417,0-16.831.017-25.245a1.136,1.136,0,0,0-.574-1.083A6.278,6.278,0,0,1,.044,15.707,9.176,9.176,0,0,1,2.005,8.95C3.994,6.364,5.691,3.552,7.491.824A1.617,1.617,0,0,1,8.939.043C9.855,0,13.432,0,13.432,0M23.974,27.314H10.822V47.952H23.974ZM48.063,2.083c.076.186.1.269.143.345,1.536,2.8,3.079,5.6,4.6,8.417a.717.717,0,0,0,.748.414c2.233-.014,4.464,0,6.7-.01a4.327,4.327,0,0,0,.512-.067c-2.012-3-3.974-5.943-5.952-8.871a.6.6,0,0,0-.44-.219c-2.071-.014-4.145-.01-6.307-.01M2.972,11.252h.743c2.14,0,4.283-.012,6.424.012a.864.864,0,0,0,.893-.524c1.452-2.7,2.933-5.376,4.4-8.062.093-.169.167-.35.281-.6-1.748,0-3.417.083-5.074-.031A2.328,2.328,0,0,0,8.224,3.338C6.577,5.969,4.8,8.521,2.972,11.252m10.124,0c2.536,0,4.95.01,7.362-.019a.754.754,0,0,0,.529-.436c.317-.89.574-1.8.85-2.707.6-1.979,1.2-3.955,1.826-6.007-1.714,0-3.355.017-5-.012a.849.849,0,0,0-.886.533c-1.443,2.676-2.914,5.338-4.376,8.007-.093.171-.171.355-.31.64m37.49,0c0-.136.017-.188,0-.221Q48.223,6.7,45.846,2.376a.567.567,0,0,0-.4-.279c-1.755-.019-3.51-.014-5.34-.014.919,3,1.81,5.924,2.729,8.84a.62.62,0,0,0,.479.314c2.412.021,4.826.014,7.269.014m-9.926-.024c.024-.119.048-.167.036-.2Q39.392,6.7,38.07,2.381A.517.517,0,0,0,37.7,2.1c-1.574-.019-3.148-.012-4.743-.012v9.145Zm-17.617-.017h7.783V2.083c-1.5,0-2.96.017-4.419-.012a.671.671,0,0,0-.8.574c-.781,2.655-1.6,5.3-2.414,7.945-.055.186-.093.379-.152.621M61.62,13.326H53.451c0,.89-.057,1.745.012,2.59a4.069,4.069,0,0,0,3.886,3.8,4.012,4.012,0,0,0,4.245-3.371,19.535,19.535,0,0,0,.026-3.017m-59.519,0c0,.85-.017,1.636,0,2.421A4.109,4.109,0,0,0,5.689,19.69a4.019,4.019,0,0,0,4.483-3.05,24.186,24.186,0,0,0,.226-3.317Zm18.555,0H12.384c0,.9-.033,1.75.007,2.6a4.1,4.1,0,0,0,8.1.543,27.927,27.927,0,0,0,.167-3.143m22.576-.019a26.449,26.449,0,0,0,.019,2.89,3.991,3.991,0,0,0,3.574,3.5,3.943,3.943,0,0,0,4.338-2.781,21.454,21.454,0,0,0,.324-3.6Zm-10.3,0c0,.933-.057,1.812.012,2.681a4.033,4.033,0,0,0,3.6,3.7,3.968,3.968,0,0,0,4.4-2.962,21.957,21.957,0,0,0,.25-3.421Zm-2.093.012H22.655c0,.867-.031,1.693.007,2.519a4.094,4.094,0,0,0,8.169.119c.06-.848.01-1.7.01-2.638" transform="translate(-0.001 0)" fill="#624198"/><path d="M24.959,29.948q-4.432,0-8.867,0a2.611,2.611,0,0,1-2.874-2.84q-.007-6.836,0-13.671a2.607,2.607,0,0,1,2.821-2.831q8.968-.011,17.938,0a2.622,2.622,0,0,1,2.812,2.848q.007,6.836,0,13.671a2.617,2.617,0,0,1-2.829,2.821c-3,.007-6,0-9,0m9.774-6.981c.012-.217.026-.371.029-.529q0-4.429,0-8.862c0-.788-.155-.943-.955-.943q-8.8,0-17.59,0c-.838,0-.967.133-.967.99q0,4.364,0,8.726c0,.2.026.39.043.617Zm.029,2.114H15.247c0,.655,0,1.262,0,1.867,0,.869.1.969.981.969q4.229,0,8.46,0,4.536,0,9.071,0c.893,0,1-.11,1-1.024,0-.583,0-1.169,0-1.812" transform="translate(18.249 14.638)" fill="#624198"/><path d="M7.761,17.424c0,.607.021,1.217-.007,1.821a.951.951,0,0,1-.971,1,.947.947,0,0,1-1.019-.95c-.04-1.236-.038-2.474,0-3.712a.945.945,0,0,1,1.012-.957.96.96,0,0,1,.986,1.048c.024.583,0,1.169,0,1.755h0" transform="translate(7.918 20.192)" fill="#624198"/></g></svg>