<?xml version="1.0" encoding="utf-8"?><svg xmlns="http://www.w3.org/2000/svg" xmlns:xlink="http://www.w3.org/1999/xlink" width="65.487" height="50" viewBox="0 0 65.487 50"><defs><clipPath id="a"><rect width="65.487" height="50" fill="none"/></clipPath></defs><g transform="translate(0 0)"><g transform="translate(0 0)" clip-path="url(#a)"><path d="M64.355,31.757c-.763-.073-1.258.425-1.435,1.443a17.2,17.2,0,1,1-2.226-11.828,16.557,16.557,0,0,1,2.246,6.069c.106.677.442,1.274,1.15,1.248a2.023,2.023,0,0,0,1.271-.738c.2-.232.121-.761.056-1.137A19.685,19.685,0,0,0,49.26,10.865a83.12,83.12,0,0,0-8.955-.316c-.293-.01-.586,0-.887,0V7.808c1.251,0,2.456.008,3.664,0,1.109-.01,1.539-.435,1.546-1.531.01-1.44.005-2.881,0-4.321C44.631.349,44.295,0,42.715,0Q36.659,0,30.6,0L19.239,0Q13.1,0,6.954.005c-1.261,0-1.673.417-1.68,1.673-.005,1.175,0,2.352,0,3.6-1.3,0-2.481-.013-3.664,0C.442,5.294.025,5.716.013,6.865c-.01.849,0,1.7,0,2.542C0,13.326-.3,13.111,3.651,13.086c.523,0,1.049,0,1.569,0v2.752c-1.284,0-2.522-.018-3.757.008C.445,15.863.025,16.29.015,17.3,0,18.769.008,20.24.01,21.708c0,1.612.323,1.938,1.925,1.941,1.087,0,2.176,0,3.282,0v2.724c-1.256,0-2.464-.01-3.671.005C.432,26.392.02,26.8.013,27.918c-.013,1.5-.005,2.994,0,4.49.005,1.377.389,1.766,1.754,1.774,1.145,0,2.292,0,3.462,0V36.9c-1.253,0-2.459-.008-3.664,0-1.117.008-1.539.419-1.549,1.526C0,39.956.005,41.482.01,43.006c.005,1.3.414,1.7,1.738,1.7,1.15,0,2.3,0,3.525,0,0,1.286-.008,2.464,0,3.644.008,1.205.424,1.622,1.637,1.622,13.046,0,26.094.086,39.14-.04,7.51-.073,13.187-3.613,17.084-10.006a18.119,18.119,0,0,0,2.3-6.327c.192-1.081-.225-1.761-1.079-1.842M7.856,2.6H42.02V5.21H7.856ZM2.6,7.856H36.772V10.5H2.6Zm.227,13.23A.855.855,0,0,1,2.613,21V18.428c.28-.018.576-.045.872-.048q4.45,0,8.9,0a5.508,5.508,0,0,0,.844-.038,1.158,1.158,0,0,0,1.092-1.276,1.12,1.12,0,0,0-1.165-1.2c-1.412-.043-2.825-.023-4.237-.028-.334,0-.665,0-1.049,0V13.172H35.939c-1.094.857-2.138,1.7-3.222,2.494a1.608,1.608,0,0,1-.884.164c-4.179.01-8.361.005-12.54.008a4.93,4.93,0,0,0-.927.051,1.234,1.234,0,0,0-.051,2.413,4.476,4.476,0,0,0,1.008.073q4.916.008,9.829.005h1.021c-.553.912-1.016,1.711-1.521,2.476a.779.779,0,0,1-.574.24q-12.625.008-25.25-.01m24.05,13.9a13.227,13.227,0,0,0,.508,1.852H7.858V34.228c.291-.018.561-.043.834-.043,5.705,0,11.411.008,17.114-.015.639-.005.983.114,1.071.819m-.99-8.631c-5.276.025-10.552.018-15.828.018h-2.2V23.709h19.5a20.09,20.09,0,0,1-.629,2.249,1.068,1.068,0,0,1-.839.4M2.6,28.967H26.271v2.608H2.6Zm.023,13.17V39.486c.278-.015.553-.04.826-.04q12.155,0,24.308-.015A1.191,1.191,0,0,1,29,40.168c.328.647.768,1.238,1.233,1.968Zm5.261,5.256v-2.64c.263-.013.536-.035.809-.038,7.729,0,15.461-.008,23.191.02a2.44,2.44,0,0,1,1.268.465c.975.665,1.9,1.4,2.959,2.193Z" transform="translate(0 0.001)" fill="#624198"/><path d="M26.918,6.265A14.429,14.429,0,1,0,41.323,20.718,14.418,14.418,0,0,0,26.918,6.265m-.066,26.319A11.89,11.89,0,1,1,38.781,20.718,11.914,11.914,0,0,1,26.852,32.584" transform="translate(19.069 9.566)" fill="#624198"/><path d="M26.094,9.74a.791.791,0,0,0-.894-.8c-2.683-.005-5.367-.013-8.048.013a1.028,1.028,0,0,0-.735.336.883.883,0,0,0-.073.793,1.141,1.141,0,0,0,.778.465c.958.056,1.92.01,2.881.028a2.193,2.193,0,0,1,2.122,1.67H17.4c-.783,0-1.157.275-1.15.834.005.541.356.793,1.117.8.508,0,1.016,0,1.524,0h3.29a2.542,2.542,0,0,1-2.322,1.693c-.523.03-1.051.018-1.577.005a1.324,1.324,0,0,0-1.344.735,1.365,1.365,0,0,0,.243,1.562c1.089,1.357,2.168,2.724,3.249,4.086.518.654,1.031,1.311,1.557,1.958A.82.82,0,1,0,23.251,22.9c-.053-.073-.109-.144-.164-.215q-1.759-2.213-3.52-4.427c-.253-.321-.5-.644-.816-1.049.452,0,.793.013,1.129,0a3.759,3.759,0,0,0,3.51-2.171c.422-.945.892-1.309,1.89-1.18a.716.716,0,0,0,.811-.756.784.784,0,0,0-.8-.841c-.359-.028-.725.008-1.087-.023a.508.508,0,0,1-.361-.22c-.21-.452-.376-.925-.579-1.448.657,0,1.3.013,1.946,0a.814.814,0,0,0,.887-.824" transform="translate(24.806 13.641)" fill="#624198"/></g></g></svg>