<?xml version="1.0" encoding="utf-8"?><svg xmlns="http://www.w3.org/2000/svg" xmlns:xlink="http://www.w3.org/1999/xlink" width="40.611" height="50" viewBox="0 0 40.611 50"><defs><clipPath id="a"><rect width="40.611" height="50" fill="none"/></clipPath></defs><g transform="translate(-155 -937)"><g transform="translate(155 937)" clip-path="url(#a)"><path d="M17.567,50c-1-.129-2-.221-2.989-.394a19.649,19.649,0,0,1-9.9-4.393,13.14,13.14,0,0,1-4.6-9.024c-.5-5.742,1.5-10.623,5.223-14.891,1.294-1.484,2.584-2.974,3.856-4.477.375-.444.679-.946,1.023-1.432C8.706,14.8,8.106,14.02,8.2,12.855c.09-1.123.848-1.855,2.29-2.165-.173-.254-.329-.492-.494-.725a16.089,16.089,0,0,1-2.57-6.678.741.741,0,0,1,1.1-.832A15.059,15.059,0,0,0,15.246,3.62c.079,0,.156-.019.371-.046C15.3,2.8,15.029,2.057,14.71,1.34c-.158-.356-.329-.686-.063-1.046s.625-.317,1.017-.246A38.807,38.807,0,0,0,24.8.723C26.74.615,28.67.288,30.6.032c.782-.1,1.146.215,1.065.992a13.893,13.893,0,0,1-1.23,4.043c-.592,1.371-1.265,2.707-1.9,4.06-.06.131-.121.263-.183.4a5.577,5.577,0,0,0,.588.654.584.584,0,0,0,.456.077c2.084-.571,4.164-1.159,6.246-1.738a2.37,2.37,0,0,1,2.982,1.257,2.291,2.291,0,0,1-1.215,3.012c-.506.206-1.044.336-1.682.538,1.113.258,2.122.471,3.116.734a2.263,2.263,0,0,1,1.717,2.711A2.211,2.211,0,0,1,38,18.563c-2-.406-4-.892-5.994-1.344-.98-.223-1.959-.446-3.005-.586.467.565.934,1.134,1.4,1.7,1.488,1.788,3.059,3.512,4.441,5.379a17.57,17.57,0,0,1,3.345,8.732,15.328,15.328,0,0,1-1,7.936,13.835,13.835,0,0,1-5.256,6.136,21.8,21.8,0,0,1-9.645,3.3c-.531.06-1.063.125-1.594.188Zm7.117-37.773c-.117-.01-.21-.023-.3-.023q-6.837,0-13.674,0a1.477,1.477,0,0,0-.523.09.751.751,0,0,0-.5.809.769.769,0,0,0,.661.742,2.867,2.867,0,0,0,.536.027c.879,0,1.759-.008,2.636.006.569.008.9.308.884.761s-.323.7-.877.709c-.438.01-.879-.023-1.317.017a.759.759,0,0,0-.488.286c-.313.433-.531.942-.869,1.351-1.5,1.817-3.028,3.618-4.56,5.41a18.553,18.553,0,0,0-4.8,11.373,12.355,12.355,0,0,0,3.137,9.306,15.694,15.694,0,0,0,7,4.275,24.659,24.659,0,0,0,10.41.99,20.267,20.267,0,0,0,9.143-3.114,12.069,12.069,0,0,0,5.262-7.19,15.644,15.644,0,0,0-.065-7.534,17.391,17.391,0,0,0-3.543-7.1c-1.732-2.134-3.528-4.216-5.308-6.311a.673.673,0,0,0-.454-.177,2.217,2.217,0,0,1-2.034-1.2.642.642,0,0,0-.686-.381c-2.23.01-4.46.006-6.69,0a4.585,4.585,0,0,1-.536-.019.716.716,0,0,1-.071-1.413,2.521,2.521,0,0,1,.531-.046q3.3,0,6.592,0h.517Zm5.4-10.6a40.822,40.822,0,0,1-13.536.085c.175.656.325,1.217.494,1.849.892-.133,1.771-.267,2.651-.392.6-.085.967.183.988.782a17.664,17.664,0,0,0,1.476,5.475c.383,1.036.923,1.548,2.04,1.309.094-.019.208.027.29-.008a1.061,1.061,0,0,0,.469-.288,2.15,2.15,0,0,1,1.3-1.117,1.355,1.355,0,0,0,.982-.873,37.961,37.961,0,0,0,2.851-6.821m-8.933,9.105A21.159,21.159,0,0,1,19.241,4.74,22.043,22.043,0,0,1,9.154,4.308a13.8,13.8,0,0,0,3.126,6.234.737.737,0,0,0,.5.181c1.53.015,3.057.008,4.587.008h3.783m8.193,4.335c.119.038.267.092.421.127q3.486.8,6.976,1.594a11.667,11.667,0,0,0,1.523.306.769.769,0,0,0,.759-1.175,1.414,1.414,0,0,0-.788-.488c-2.526-.6-5.058-1.178-7.588-1.757-.417-.1-.836-.177-1.3-.277Zm.1-3.278,0,.1c1,.231,1.994.465,2.993.688a.943.943,0,0,0,.431-.008c1.255-.344,2.507-.692,3.756-1.055A.845.845,0,0,0,37.3,10.44a.854.854,0,0,0-1.146-.521c-1.519.417-3.037.846-4.554,1.269l-2.149.6m-1.586,1.28h0V11.653c0-.033,0-.065,0-.1-.035-.556-.35-.907-.819-.913a.837.837,0,0,0-.838.894q-.041,1.513,0,3.026a.809.809,0,0,0,.846.873c.49-.006.792-.329.813-.9.019-.488,0-.977,0-1.465" transform="translate(0 -0.001)" fill="#624198"/><path d="M13.736,18.069H9.549c-.646,0-1.292,0-1.938,0-.969-.006-1.415-.327-1.423-1.017-.008-.711.465-1.059,1.465-1.059q2.629-.006,5.26,0h.757a2.794,2.794,0,0,0-2.7-2.128c-1.223-.023-2.449.038-3.668-.035a1.453,1.453,0,0,1-.99-.59A1.113,1.113,0,0,1,6.4,12.229a1.3,1.3,0,0,1,.936-.429c3.416-.031,6.832-.023,10.248-.017A1.007,1.007,0,0,1,18.723,12.8a1.038,1.038,0,0,1-1.13,1.048c-.821.023-1.64,0-2.478,0,.261.667.471,1.267.738,1.844a.641.641,0,0,0,.461.279c.459.04.925-.008,1.384.027a1,1,0,0,1,1.023,1.073.912.912,0,0,1-1.036.959c-1.267-.163-1.867.3-2.405,1.5a4.788,4.788,0,0,1-4.466,2.764c-.429.021-.863,0-1.438,0,.4.517.717.927,1.038,1.334q2.238,2.82,4.481,5.635c.071.09.144.181.21.275a1.045,1.045,0,1,1-1.617,1.3c-.669-.823-1.321-1.661-1.98-2.493-1.378-1.734-2.749-3.474-4.137-5.2a1.74,1.74,0,0,1-.308-1.988,1.688,1.688,0,0,1,1.711-.938c.669.017,1.34.033,2.007,0a3.244,3.244,0,0,0,2.955-2.157" transform="translate(6.707 12.767)" fill="#624198"/></g></g></svg>