<?xml version="1.0" encoding="utf-8"?><svg xmlns="http://www.w3.org/2000/svg" xmlns:xlink="http://www.w3.org/1999/xlink" width="79.708" height="50" viewBox="0 0 79.708 50"><defs><clipPath id="a"><rect width="79.708" height="50" fill="none"/></clipPath></defs><g clip-path="url(#a)"><path d="M0,35.043c.145-.654.26-1.319.444-1.963C1.95,27.875,5.327,24.487,10.6,23.309c5.182-1.158,9.619.439,13.191,4.385.138.151.273.3.428.478,1.555-.745,3.089-1.477,4.621-2.212-.73-1.545-.789-1.578-2.347-1.462-.776.057-1.555.088-2.329.151a7.014,7.014,0,0,1-5.242-1.739q-3.189-2.679-6.431-5.294a1.935,1.935,0,0,0-1.1-.379,5.45,5.45,0,0,1-4.224-1.83c-1.791-2.085-3.528-4.219-5.275-6.34a2.232,2.232,0,0,1-.348-2.412A2.145,2.145,0,0,1,3.6,5.247c1.192-.016,2.388-.013,3.575.088a4.836,4.836,0,0,1,2.882,1.412L12.311,8.84c2.046-1.218,3.9-.8,5.818.418a25.138,25.138,0,0,0,9.292,3.134c.184.034.462-.156.615-.317.633-.685,1.218-1.415,1.856-2.1A11.4,11.4,0,0,1,41.542,6.426,35.4,35.4,0,0,1,52.108,10.19a.32.32,0,0,0,.3.013c-.213-.166-.431-.327-.639-.5a3.211,3.211,0,0,1-.6-4.341A3.174,3.174,0,0,1,55.442,4.4a42.911,42.911,0,0,1,4.25,2.871,10.011,10.011,0,0,1,1.576,2.111A6.746,6.746,0,0,0,61.1,6.35c-.158-.6-.384-1.181-.582-1.771a2.48,2.48,0,0,1,.989-3c.644-.436,1.306-.849,1.986-1.223a2.37,2.37,0,0,1,3.056.462c2.334,2.646,4.665,5.3,6.911,8.014a17.069,17.069,0,0,1,2.731,5.891c.356,1.109.719,2.217,1.057,3.331a2.549,2.549,0,0,1-2.087,3.476c-1.241.241-2.487.457-3.811.7,1.218.665,2.347,1.246,3.44,1.887s1.861,1.436,1.293,2.861c-.062.158.195.485.363.685a13.516,13.516,0,1,1-21,17.01c-.127-.164-.254-.325-.441-.563-.382,1.431-1.363,1.771-2.661,1.729-1.815-.06-3.632-.01-5.449-.018-.942,0-1.441-.41-1.446-1.142s.506-1.179,1.428-1.186c1.711-.013,3.424-.021,5.135.005.517.01.7-.145.779-.678.306-1.994.683-3.977,1.049-6.054A18.528,18.528,0,0,1,45.033,34.4c-.08.257-.143.452-.2.649a5.563,5.563,0,0,1-9.2,2.459,1.331,1.331,0,0,0-.763-.418c-1.893-.036-3.785-.021-5.764-.021a3.983,3.983,0,0,0,.247.5c1.257,1.812,2.5,3.632,3.793,5.416a1.341,1.341,0,0,0,.935.475c2.152.042,4.307.021,6.462.023a4.832,4.832,0,0,1,.7.023,1.184,1.184,0,0,1,1.077,1.215,1.142,1.142,0,0,1-1.194,1.085c-2.048.021-4.1.013-6.148.01-2.882-.005-2.575.244-4.286-2.23-1.207-1.747-2.425-3.484-3.726-5.348-.132.571-.228,1.01-.335,1.446A13.508,13.508,0,0,1,.143,38.424,2.32,2.32,0,0,0,0,38V35.043m60.136-7.129c-.376.582-.74,1.088-1.041,1.625a33.128,33.128,0,0,0-3.349,9.891,2.485,2.485,0,0,0,.135,1.332A11.168,11.168,0,1,0,74.311,28.81c-.195-.2-.54-.47-.74-.415-.862.226-1.7.558-2.64.888a8.764,8.764,0,0,1,3.357,4.338,1.174,1.174,0,0,1-.6,1.563,1.191,1.191,0,0,1-1.573-.732c-.151-.33-.265-.678-.444-.989a6.247,6.247,0,0,0-3.744-2.983c.566,1.732,1.093,3.3,1.584,4.873a3.244,3.244,0,1,1-6.161,2.022c-.493-1.446-.948-2.905-1.425-4.356-.083-.252-.19-.493-.3-.781a6.089,6.089,0,0,0-1.62,5.242,6.258,6.258,0,0,0,11.758,1.833c.465-.844,1.1-1.116,1.752-.745.636.361.766.994.306,1.825a8.3,8.3,0,0,1-8.012,4.637,7.964,7.964,0,0,1-7.542-5.312,7.9,7.9,0,0,1,1.6-9.009,1.929,1.929,0,0,0,.436-2.588,1.711,1.711,0,0,0-.177-.205M50.789,19.37a17.749,17.749,0,0,1,9,5.535c2.978-2.513,6.506-3.739,10.136-4.73-.644-2-.314-3.04,1.306-3.886a13.28,13.28,0,0,1,2.043-.709c.21-.068.431-.1.685-.161-.293-.859-.584-1.633-.82-2.425a1.223,1.223,0,0,0-1.376-1.038,12.522,12.522,0,0,1-1.547-.13A4.975,4.975,0,0,1,66.1,9.406c-.509-.813-1.07-1.591-1.61-2.386-.335-.493-.672-.987-.966-1.412a26.439,26.439,0,0,1,.065,4c-.369,2.905-2.186,4.79-4.751,6-2.409,1.14-4.844,2.225-7.269,3.339-.221.1-.431.234-.776.423m2.775,15.045c.717.179,1.057-.254,1.4-1.1a64.7,64.7,0,0,1,2.781-5.961c.317-.6.314-.922-.119-1.379a15.2,15.2,0,0,0-9.017-4.632,3.244,3.244,0,0,0-1.672-.029,7.872,7.872,0,0,0-4.891,6.675,1.283,1.283,0,0,0,.379.8c.652.755,1.345,1.477,2.017,2.215a3.56,3.56,0,0,0,.5.571,15.914,15.914,0,0,0,8.627,2.835M29.778,13.646c2.383,2.638,4.735,5.244,7.16,7.929a10.307,10.307,0,0,1,5.431-4.894c2.76-1.308,5.475-2.7,8.212-4.06.145-.07.286-.153.5-.27-.317-.192-.532-.325-.753-.454a28.941,28.941,0,0,0-8.682-3.035A12.365,12.365,0,0,0,36.8,8.513c-3.149.571-5.089,2.8-7.025,5.133M24.4,38.369a15.285,15.285,0,0,1-1.688.07c-.618-.039-.872.187-1.075.787A8.593,8.593,0,1,1,5.405,33.582,8.655,8.655,0,0,1,19.1,29.913a1.055,1.055,0,0,0,.823.278c.7-.252,1.353-.62,2.035-.948A11.044,11.044,0,0,0,8.458,26.5a11.187,11.187,0,0,0,7.124,20.969c4.567-.854,9-5.4,8.817-9.1m5.847-10.491L12.789,36.225c.029.1.057.195.083.291a5.444,5.444,0,0,0,.646.044c4.141-.2,8.279-.395,12.418-.615a1.056,1.056,0,0,0,.693-.35,2.193,2.193,0,0,1,1.9-.862c.979.021,1.955.005,2.726.005.195-1.482.382-2.848.545-4.219a.94.94,0,0,0-.151-.558c-.434-.675-.89-1.332-1.4-2.082M17.195,31.52a5.986,5.986,0,0,0-7.088-.293A6.251,6.251,0,0,0,14.09,42.694c2.388-.177,4.834-2.074,5.177-4.034-.439,0-.875-.018-1.308,0-1.451.07-2.9.156-4.351.231a4.692,4.692,0,0,1-.854,0,2.564,2.564,0,0,1-2.235-2.163,2.507,2.507,0,0,1,1.431-2.687c1.713-.852,3.45-1.659,5.247-2.521m16.8,3.276a3.594,3.594,0,0,1,3.6,1.225,2.609,2.609,0,0,0,2.383.665,3.194,3.194,0,0,0,2.682-2.565,3.14,3.14,0,0,0-1.623-3.406,2.2,2.2,0,0,1-1.363-2.433,2.251,2.251,0,0,0-.031-.426,4.97,4.97,0,0,0-4.562,1.675A5.321,5.321,0,0,0,33.992,34.8M14.489,10.32c-.034.093-.068.184-.1.278.169.153.33.312.506.457,2.4,1.973,4.834,3.9,7.186,5.932a4.445,4.445,0,0,0,4.3,1.07c1.132-.291,2.29-.488,3.539-.748-.509-.571-.95-1.01-1.327-1.5a3.162,3.162,0,0,0-2.124-1.218,27.817,27.817,0,0,1-10.351-3.78,6.166,6.166,0,0,0-1.633-.493M37.655,25.43a13.846,13.846,0,0,1,1.906.021c.509.073.659-.119.831-.543a9.644,9.644,0,0,1,4.593-5.185c3.256-1.656,6.54-3.25,9.814-4.87.247-.122.493-.241.784-.382a2.365,2.365,0,0,0-2.755-.3c-3.64,1.815-7.324,3.544-10.922,5.436A7.215,7.215,0,0,0,39.5,21.844a27.914,27.914,0,0,0-1.843,3.585m-4.486,2.6c1.485-.942,1.82-2.544,2.521-3.907a.678.678,0,0,0-.145-.587q-1.725-1.955-3.5-3.866a.787.787,0,0,0-.579-.252c-1.186.21-2.368.465-3.642.724l5.343,7.887M3.694,7.607C5.517,9.8,7.171,11.891,8.962,13.861a3.09,3.09,0,0,0,2.1.953,18.285,18.285,0,0,0,3.484-.763c0-.08,0-.161.005-.244-.231-.195-.465-.387-.693-.584C12.3,11.857,10.626,10.6,9.211,9.1,7.664,7.454,5.836,7.449,3.694,7.607m22.66,14.536A10.012,10.012,0,0,0,25.567,21a1.212,1.212,0,0,0-.732-.405,6.071,6.071,0,0,1-3.772-1.451c-1.259-1.038-2.516-2.082-3.79-3.1a1.059,1.059,0,0,0-.737-.273,17.547,17.547,0,0,0-1.838.615c1.859,1.532,3.7,2.895,5.351,4.455,1.851,1.747,3.972,1.571,6.306,1.3M62.1,26.035c1.168,3.588,2.311,7.1,3.458,10.613.031.1.062.241.132.273.35.153.776.454,1.051.356s.462-.589.6-.94c.06-.153-.093-.392-.156-.589q-1.62-4.977-3.245-9.954c-.078-.236-.179-.465-.293-.758-.54.35-1.015.654-1.55,1m3.689-2.1c.478,1.459.911,2.778,1.36,4.151l6.21-2.126a12.422,12.422,0,0,0-7.57-2.025M58,13.373c1.623-.711,1.643-.755,1.145-2.292-.145-.441-.273-.893-.452-1.321a1.567,1.567,0,0,0-.452-.691q-1.916-1.332-3.876-2.6a.843.843,0,0,0-1.283.254A.86.86,0,0,0,53.4,8a9.52,9.52,0,0,0,1.228.818,5.354,5.354,0,0,1,3.219,4.151,2.157,2.157,0,0,0,.156.4M64.437,2.438c-.029.073-.06.145-.091.221,1.337,1.963,2.658,3.936,4.021,5.88a2.8,2.8,0,0,0,2.664.942C68.955,7.1,66.976,4.819,64.98,2.555c-.1-.112-.358-.08-.543-.117M75.214,19.069c-.27-.473-.48-1.207-.74-1.225a3.29,3.29,0,0,0-2.591.841c.989.919,2.033.82,3.331.384" transform="translate(0 0.001)" fill="#624198"/></g></svg>