<?xml version="1.0" encoding="utf-8"?><svg xmlns="http://www.w3.org/2000/svg" xmlns:xlink="http://www.w3.org/1999/xlink" width="49.985" height="50" viewBox="0 0 49.985 50"><defs><clipPath id="a"><rect width="49.985" height="50" fill="none"/></clipPath></defs><g clip-path="url(#a)"><path d="M15.912,0a1.182,1.182,0,0,1,.5,1.132c-.031.8-.025,1.594,0,2.393.019.6-.1,1.075-.765,1.182v1.88c.179-.088.323-.152.461-.229,2.732-1.5,5.469-3,8.191-4.529a1.283,1.283,0,0,1,1.4,0Q36.716,7.931,47.757,14a1.129,1.129,0,0,1,.671,1.125c-.027,1.138,0,2.278-.01,3.418,0,.875-.55,1.2-1.321.788-.838-.452-1.669-.917-2.576-1.415v13.3H42.954v-.554q0-6.565.008-13.13a.694.694,0,0,0-.413-.719q-8.566-4.7-17.115-9.441a.782.782,0,0,0-.882,0Q16,12.115,7.438,16.821a.662.662,0,0,0-.419.665q.019,10.545.01,21.087v.454H8.591V19.878c0-.9.223-1.132,1.113-1.132q5.149,0,10.3,0c.836,0,1.082.242,1.082,1.063q0,5.468,0,10.935v.465H19.543V20.347H10.185v18.69h1.492v1.58H2.724c-.131,0-.263-.006-.392,0a.777.777,0,0,0,.021,1.555c.131.008.261,0,.392,0H11.69v1.563h-.509c-2.749,0-5.5-.042-8.247.017A2.67,2.67,0,0,1,0,41.887v-.977a2.463,2.463,0,0,1,2.395-1.853c.488-.006.975,0,1.463,0H5.435V17.938c-.873.479-1.692.936-2.518,1.382-.8.433-1.351.11-1.355-.788,0-1.121.021-2.245-.01-3.366A1.146,1.146,0,0,1,2.236,14c1.744-.938,3.474-1.9,5.2-2.872.156-.088.354-.288.356-.438.023-1.982.015-3.966.015-5.973-.646-.125-.809-.556-.788-1.15.029-.811.029-1.626,0-2.438A1.184,1.184,0,0,1,7.517,0ZM46.859,17.419c0-.627-.023-1.165.008-1.7a.6.6,0,0,0-.388-.638Q35.932,9.277,25.4,3.447a.715.715,0,0,0-.8-.006C22.2,4.781,19.8,6.1,17.394,7.43q-6.937,3.826-13.868,7.659c-.163.09-.373.269-.383.419-.044.609-.019,1.221-.019,1.9.219-.113.375-.188.527-.271Q13.936,11.458,24.215,5.771a1.436,1.436,0,0,1,1.578.01q7.944,4.417,15.912,8.795c1.69.934,3.38,1.865,5.154,2.843M9.4,10.056c1.54-.846,3.016-1.659,4.489-2.478a.327.327,0,0,0,.163-.21c.01-.888.006-1.774.006-2.657H9.4Zm5.417-8.464H8.628V3.1h6.184Z" transform="translate(0 -0.001)" fill="#624198"/><path d="M26.085,32.93c-4.487,0-8.976-.008-13.465.008a1.322,1.322,0,0,1-1.219-.621c-1.68-2.436-3.385-4.854-5.081-7.278-.436-.621-.436-.784-.006-1.4,1.7-2.436,3.42-4.868,5.112-7.315a1.234,1.234,0,0,1,1.134-.59q13.418.016,26.835.008a3.9,3.9,0,0,1,4.091,4.07q.009,4.514,0,9.028A3.906,3.906,0,0,1,39.4,32.928q-6.659.006-13.32,0m.263-15.623q-6.637,0-13.272-.006a.674.674,0,0,0-.644.313q-2.22,3.207-4.477,6.392a.492.492,0,0,0,.013.677q2.21,3.126,4.389,6.273a.84.84,0,0,0,.786.421q13.1-.019,26.2-.01a2.357,2.357,0,0,0,2.58-2.574q0-4.439,0-8.883a2.361,2.361,0,0,0-2.6-2.6H26.348" transform="translate(6.496 17.061)" fill="#624198"/><path d="M20.215,19.931H13.481a2.368,2.368,0,0,1-2.613-2.591q0-2.9,0-5.806A2.351,2.351,0,0,1,13.385,9q6.853,0,13.709,0a2.343,2.343,0,0,1,2.516,2.491q.006,2.976,0,5.952a2.344,2.344,0,0,1-2.516,2.491q-3.439.006-6.88,0m-2.343-9.368c-1.592,0-3.151-.01-4.71.006a.663.663,0,0,0-.7.623c-.044.819-.015,1.644-.015,2.466h5.427Zm10.177,3.095c0-.732,0-1.428,0-2.124s-.275-.973-.975-.975q-2.051-.006-4.1,0c-.123,0-.246.023-.369.033v3.066ZM17.872,15.279h-5.44c0,.8-.013,1.561.006,2.324a.7.7,0,0,0,.692.748c1.571.027,3.145.01,4.741.01Zm10.177,0H22.62v3.093c1.563,0,3.091.008,4.618-.006a.765.765,0,0,0,.807-.844c.013-.732,0-1.463,0-2.243M20.986,10.6h-1.5v7.749h1.5Z" transform="translate(11.781 9.75)" fill="#624198"/><path d="M15.09,22.454c.406,1.021.8,2.013,1.217,3.055l-1.444.581c-.419-1.044-.834-2.049-1.221-3.062a.459.459,0,0,0-.527-.358c-.454.025-.909.006-1.417.006v3.095h-1.58V24.107q0-2.538,0-5.075c0-.792.252-1.04,1.057-1.042.894,0,1.79,0,2.684,0a2.344,2.344,0,0,1,1.373,4.345c-.038.027-.073.06-.144.117m-3.376-2.9v1.559c.242,0,.45,0,.659,0,.552,0,1.1.015,1.653-.006a.768.768,0,0,0,.775-.773.759.759,0,0,0-.771-.773c-.759-.021-1.519-.006-2.315-.006" transform="translate(10.968 19.502)" fill="#624198"/><path d="M20.758,18.014h1.574v.4c0,2.13,0,4.258,0,6.388,0,.45-.108.821-.573.959s-.759-.135-.992-.511c-.744-1.2-1.494-2.393-2.315-3.706v4.218H16.892c-.008-.129-.025-.269-.027-.411,0-2.113.006-4.227,0-6.34,0-.469.1-.859.594-.992.473-.127.752.163.982.538.656,1.065,1.323,2.124,1.986,3.182.083.131.175.258.336.494Z" transform="translate(18.279 19.502)" fill="#624198"/><path d="M18.951,18v1.532H15.087V21.1h3.055v1.569H15.081v1.553H18.93v1.565c-1.378,0-2.741.04-4.1-.015A1.463,1.463,0,0,1,13.5,24.315q-.031-2.417,0-4.831a1.469,1.469,0,0,1,1.365-1.471c1.346-.046,2.693-.013,4.083-.013" transform="translate(14.622 19.501)" fill="#624198"/><path d="M24.878,18.006v1.517H23.361V25.75H21.783v-6.2h-1.53V18.006Z" transform="translate(21.957 19.519)" fill="#624198"/></g></svg>