<?xml version="1.0" encoding="utf-8"?><svg xmlns="http://www.w3.org/2000/svg" xmlns:xlink="http://www.w3.org/1999/xlink" width="30.309" height="35.922" viewBox="0 0 30.309 35.922"><defs><clipPath id="a"><path d="M19.635,12.752l-6.03,6.03-2.93-2.929A1.4,1.4,0,1,0,8.69,17.838l3.922,3.921a1.4,1.4,0,0,0,1.984,0l7.024-7.024a1.4,1.4,0,1,0-1.985-1.984m-16.829,1.3v-6L15.155,2.922,27.5,8.05v6A20.7,20.7,0,0,1,15.155,32.994,20.7,20.7,0,0,1,2.806,14.053M15.12,0a1.4,1.4,0,0,0-.5.107L.864,5.817A1.4,1.4,0,0,0,0,7.112v6.941A23.5,23.5,0,0,0,14.625,35.819a1.409,1.409,0,0,0,1.059,0A23.5,23.5,0,0,0,30.309,14.053V7.112a1.4,1.4,0,0,0-.864-1.3L15.693.107A1.4,1.4,0,0,0,15.19,0Z"/></clipPath></defs><g clip-path="url(#a)"><path d="M0,0H30.309V35.957H0Z" transform="translate(0 0)"/></g></svg>