<?xml version="1.0" encoding="utf-8"?><svg xmlns="http://www.w3.org/2000/svg" xmlns:xlink="http://www.w3.org/1999/xlink" width="29.528" height="38.276" viewBox="0 0 29.528 38.276"><defs><clipPath id="a"><path d="M4.227,29.405A10.574,10.574,0,0,1,4.092,18.6l10.672-14.9,10.673,14.95A10.593,10.593,0,0,1,25.3,29.405a12.084,12.084,0,0,1-21.075,0M14.764,0a1.266,1.266,0,0,0-1.08.586L1.886,17.112c-.045.045-.045.09-.09.09a13.4,13.4,0,0,0,.09,13.554,14.983,14.983,0,0,0,12.878,7.52,14.982,14.982,0,0,0,12.879-7.52,13.918,13.918,0,0,0,1.886-6.8v-.243a13.162,13.162,0,0,0-1.8-6.507.1.1,0,0,0-.091-.09L15.845.586A1.265,1.265,0,0,0,14.764,0Z"/></clipPath><clipPath id="b"><path d="M20.484,23.6a5.824,5.824,0,0,1-5.81,5.809,1.351,1.351,0,0,0,0,2.7A8.534,8.534,0,0,0,23.186,23.6a1.351,1.351,0,0,0-2.7,0"/></clipPath></defs><g transform="translate(-0.001)"><g clip-path="url(#a)"><rect width="30.164" height="38.276" transform="translate(-0.635 0)"/></g><g clip-path="url(#b)"><rect width="9.862" height="9.862" transform="translate(13.324 22.245)"/></g></g></svg>