<?xml version="1.0" encoding="utf-8"?><svg xmlns="http://www.w3.org/2000/svg" width="54.014" height="50" viewBox="0 0 54.014 50"><g transform="translate(-941.993 -937.001)"><path d="M40.42,19.956a4.285,4.285,0,0,0-1.826.4,2.83,2.83,0,0,1-2.434,0,4.344,4.344,0,0,0-3.656,0,2.825,2.825,0,0,1-2.432,0,4.351,4.351,0,0,0-3.656,0,2.825,2.825,0,0,1-2.432,0,4.351,4.351,0,0,0-3.656,0,2.825,2.825,0,0,1-2.432,0,4.351,4.351,0,0,0-3.656,0,2.83,2.83,0,0,1-2.434,0,4.347,4.347,0,0,0-3.653,0,2.83,2.83,0,0,1-2.434,0,4.27,4.27,0,0,0-1.828-.4A4.331,4.331,0,0,0,.1,22.194a.848.848,0,0,0,1.486.819,2.627,2.627,0,0,1,2.3-1.361A2.573,2.573,0,0,1,5,21.9a4.5,4.5,0,0,0,3.87,0,2.643,2.643,0,0,1,2.217,0,4.5,4.5,0,0,0,3.87,0,2.643,2.643,0,0,1,2.217,0,4.5,4.5,0,0,0,3.87,0,2.643,2.643,0,0,1,2.217,0,4.5,4.5,0,0,0,3.87,0,2.643,2.643,0,0,1,2.217,0,4.5,4.5,0,0,0,3.87,0,2.643,2.643,0,0,1,2.217,0,4.5,4.5,0,0,0,3.87,0,2.6,2.6,0,0,1,1.109-.244,2.627,2.627,0,0,1,2.3,1.361.846.846,0,0,0,.744.44.83.83,0,0,0,.408-.106.849.849,0,0,0,.333-1.153,4.326,4.326,0,0,0-3.787-2.238" transform="translate(941.993 958.635)" fill="#624198"/><path d="M40.42,22.313a4.284,4.284,0,0,0-1.828.4,2.83,2.83,0,0,1-2.434,0,4.339,4.339,0,0,0-3.653,0,2.83,2.83,0,0,1-2.434,0,4.339,4.339,0,0,0-3.653,0,2.83,2.83,0,0,1-2.434,0,4.339,4.339,0,0,0-3.653,0,2.83,2.83,0,0,1-2.434,0,4.339,4.339,0,0,0-3.653,0,2.83,2.83,0,0,1-2.434,0,4.339,4.339,0,0,0-3.653,0,2.83,2.83,0,0,1-2.434,0,4.284,4.284,0,0,0-1.828-.4A4.331,4.331,0,0,0,.1,24.551a.848.848,0,0,0,1.486.819,2.627,2.627,0,0,1,2.3-1.361A2.6,2.6,0,0,1,5,24.253a4.5,4.5,0,0,0,3.87,0,2.635,2.635,0,0,1,2.217,0,4.5,4.5,0,0,0,3.872,0,2.635,2.635,0,0,1,2.217,0,4.544,4.544,0,0,0,3.868,0,2.635,2.635,0,0,1,2.217,0,4.5,4.5,0,0,0,3.87,0,2.64,2.64,0,0,1,2.22,0,4.5,4.5,0,0,0,3.87,0,2.635,2.635,0,0,1,2.217,0,4.5,4.5,0,0,0,3.87,0,2.571,2.571,0,0,1,1.109-.246,2.627,2.627,0,0,1,2.3,1.361.846.846,0,0,0,.744.44.83.83,0,0,0,.408-.106.849.849,0,0,0,.333-1.153,4.326,4.326,0,0,0-3.787-2.238" transform="translate(941.993 961.19)" fill="#624198"/><path d="M3.487,38.061A.848.848,0,0,0,5,37.3,70.044,70.044,0,0,1,2.19,30.836h39.8a25.546,25.546,0,0,1-2.861,6.411.848.848,0,0,0,1.457.869,24.993,24.993,0,0,0,3.3-7.974.846.846,0,0,0-.834-1H22.863V26.557A125.235,125.235,0,0,1,36.614,26a.769.769,0,0,0,.617-.242.846.846,0,0,0,.256-.613,16.481,16.481,0,0,0-.531-3.439.848.848,0,1,0-1.646.408,18.157,18.157,0,0,1,.408,2.17,140.624,140.624,0,0,0-14.916.767c2.3-6.232.659-16.713-.163-20.96a38.255,38.255,0,0,1,6.627,4.923.849.849,0,0,0,1.159-1.24,41.122,41.122,0,0,0-8.595-6.09.848.848,0,0,0-1.23.938c.038.163,3.708,16.306.079,23.027a.851.851,0,0,0,.746,1.253.865.865,0,0,0,.1-.006c.023,0,.627-.075,1.638-.175v2.422H.98a.848.848,0,0,0-.8,1.123,69.955,69.955,0,0,0,3.31,7.8" transform="translate(942.135 938.713)" fill="#624198"/><path d="M11.92,17.627a.675.675,0,0,0,.092,0,.85.85,0,0,0,.842-.759,49.876,49.876,0,0,0-.329-11.2.849.849,0,0,0-1.684.213,48.029,48.029,0,0,1,.325,10.808.849.849,0,0,0,.754.934" transform="translate(953.738 942.345)" fill="#624198"/><path d="M3.4,21.882a18.236,18.236,0,0,1,8.33,1.811.848.848,0,0,0,1.213-.492c.142-.45,3.426-11.1,1.817-18.1a.848.848,0,0,0-.782-.656.861.861,0,0,0-.846.571C13.093,5.137,8.791,17.531,3,20.269a.848.848,0,0,0,.4,1.613M13.5,8.732A48.847,48.847,0,0,1,11.6,21.739,18.878,18.878,0,0,0,5.986,20.3C9.4,17.372,12.045,12.116,13.5,8.732" transform="translate(944.721 941.813)" fill="#624198"/><path d="M3.667,16.351a.848.848,0,0,0,0,1.7h20.41a.848.848,0,0,0,0-1.7Z" transform="translate(945.049 954.727)" fill="#624198"/><path d="M21.857,10.012a.847.847,0,0,0-.656,1,28.277,28.277,0,0,1,.8,6.292.859.859,0,0,0,.848.9.849.849,0,0,0,.846-.8,29.158,29.158,0,0,0-.838-6.732.846.846,0,0,0-1-.656" transform="translate(964.957 947.836)" fill="#624198"/><path d="M20.129,18.084h.023a.849.849,0,0,0,.825-.869c0-.088-.058-2.167-.534-6.363a.848.848,0,0,0-1.686.192c.465,4.11.523,6.192.523,6.215a.85.85,0,0,0,.848.825" transform="translate(962.323 947.952)" fill="#624198"/><path d="M39.145,9.587a.849.849,0,0,0-.327-.694,11.43,11.43,0,0,0-7.088-2.011,12.442,12.442,0,0,0,1.1-6.117.846.846,0,0,0-.961-.757A9,9,0,0,0,24.85,5.077a13.949,13.949,0,0,0-7.528-3.72.848.848,0,0,0-.959.852c.046,3.076,2.076,5.485,3.683,6.915a10.867,10.867,0,0,0-6.121,3.2.85.85,0,0,0-.2.646.841.841,0,0,0,.336.588c1.24.93,4.675.857,6.948.688-1.2,2.732.054,6.552.121,6.75a.853.853,0,0,0,.8.579.864.864,0,0,0,.344-.073,8.948,8.948,0,0,0,4.46-4.964,19.915,19.915,0,0,0,4.889,4.61.847.847,0,0,0,1.269-.448,9.5,9.5,0,0,0-1.178-7.865,15.926,15.926,0,0,0,7.063-2.578.848.848,0,0,0,.367-.673m-9,1.5a.849.849,0,0,0-.763,1.407c.029.031,2.63,2.964,2.159,6.521-1.507-1.159-3.7-3.168-4.174-4.994a.869.869,0,0,0-.857-.634.851.851,0,0,0-.8.7c-.006.04-.654,3.6-3.243,5.371-.333-1.523-.7-4.37.884-5.563a.848.848,0,0,0-.613-1.519,30.163,30.163,0,0,1-6.515.163A9.34,9.34,0,0,1,22.361,10.7a.866.866,0,0,0,.861-.6.847.847,0,0,0-.375-.977C22.8,9.1,18.935,6.742,18.185,3.266a11.012,11.012,0,0,1,6.227,3.943.839.839,0,0,0,.842.346.848.848,0,0,0,.673-.617,7.509,7.509,0,0,1,5.242-5.064,9.349,9.349,0,0,1-1.709,5.45.848.848,0,0,0,.8,1.363,12.174,12.174,0,0,1,6.413.854c-1.465.784-4.1,1.924-6.523,1.542" transform="translate(956.862 937.001)" fill="#624198"/><rect width="54.014" height="50" transform="translate(941.993 937.001)" fill="none"/></g></svg>