<?xml version="1.0" encoding="utf-8"?><svg xmlns="http://www.w3.org/2000/svg" width="17.257" height="17.257" viewBox="0 0 17.257 17.257"><path d="M15.408,32H1.849A1.849,1.849,0,0,0,0,33.849V47.408a1.849,1.849,0,0,0,1.849,1.849H15.408a1.849,1.849,0,0,0,1.849-1.849V33.849A1.849,1.849,0,0,0,15.408,32Zm-1.884,6.117c.008.108.008.22.008.327a7.139,7.139,0,0,1-7.188,7.188A7.155,7.155,0,0,1,2.465,44.5a5.321,5.321,0,0,0,.609.031,5.065,5.065,0,0,0,3.136-1.079A2.53,2.53,0,0,1,3.848,41.7a2.723,2.723,0,0,0,1.14-.046,2.527,2.527,0,0,1-2.022-2.481v-.031a2.525,2.525,0,0,0,1.14.32,2.521,2.521,0,0,1-1.125-2.1,2.5,2.5,0,0,1,.343-1.275,7.173,7.173,0,0,0,5.208,2.642,2.532,2.532,0,0,1,4.31-2.307,4.95,4.95,0,0,0,1.6-.609A2.52,2.52,0,0,1,13.336,37.2a5.028,5.028,0,0,0,1.456-.393A5.318,5.318,0,0,1,13.525,38.117Z" transform="translate(0 -32)" fill="#45247c"/></svg>