<?xml version="1.0" encoding="UTF-8"?><svg xmlns="http://www.w3.org/2000/svg" xmlns:xlink="http://www.w3.org/1999/xlink" width="59.815" height="59.815" viewBox="0 0 59.815 59.815"><defs><clipPath id="a"><rect width="59.815" height="59.815" fill="rgba(0,0,0,0)"/></clipPath><clipPath id="b"><rect width="27.308" height="30" fill="#593b8a"/></clipPath></defs><g transform="translate(-870 -4114)"><g transform="translate(870 4114)"><g clip-path="url(#a)"><path d="M59,29.968h.439A29.468,29.468,0,1,1,29.968.5,29.469,29.469,0,0,1,59.437,29.968h-.878A28.591,28.591,0,1,0,29.968,58.559,28.627,28.627,0,0,0,58.559,29.968Z" transform="translate(-0.061 -0.061)" fill="#192b40"/></g></g><g transform="translate(887 4129)"><g clip-path="url(#b)"><path d="M26.949,19.088a8.373,8.373,0,0,0-6.255-6.027c-.193-.052-.256-.122-.255-.328.01-1.748,0-3.5.008-5.243a.968.968,0,0,0-.279-.71Q17.085,3.548,14.009.311A.935.935,0,0,0,13.285,0C9.995,0,6.7,0,3.415,0A3.343,3.343,0,0,0,0,3.414q-.011,9.5,0,19.009a3.455,3.455,0,0,0,.162,1.064,3.341,3.341,0,0,0,3.314,2.34q3.793.006,7.585,0a.411.411,0,0,1,.4.211,8.465,8.465,0,0,0,5.31,3.74c.364.086.732.15,1.1.224h1.172c.023-.057.069-.059.12-.05.048-.007.1-.018.115.05h.234a2.376,2.376,0,0,1,.693-.139,8.435,8.435,0,0,0,5.463-3.466,8.162,8.162,0,0,0,1.284-7.307M14.065,2.2l4.267,4.493H16.353c-.244,0-.487,0-.731,0a1.505,1.505,0,0,1-1.555-1.547c-.012-.955,0-1.91,0-2.945M10.78,18.033c-.062.154-.191.108-.3.108q-2.578,0-5.155,0a2.473,2.473,0,0,0-.379.022.591.591,0,0,0-.5.559.6.6,0,0,0,.425.624,1.258,1.258,0,0,0,.4.045H10.32a8.794,8.794,0,0,0-.2,2.641,8.218,8.218,0,0,0,.5,2.3c.081.207.032.243-.173.242-2.314-.005-4.628,0-6.942-.006a2.077,2.077,0,0,1-2.172-1.59,2.6,2.6,0,0,1-.078-.665q-.006-9.388,0-18.777A2.122,2.122,0,0,1,2.837,1.33a2.542,2.542,0,0,1,.694-.08c3,0,5.995,0,8.992-.006.245,0,.306.066.3.306q-.019,1.772,0,3.544a2.736,2.736,0,0,0,2.087,2.76,3.256,3.256,0,0,0,.871.09c1.045,0,2.089.007,3.134,0,.2,0,.29.029.288.265-.012,1.455-.007,2.91,0,4.365,0,.161.007.264-.224.255a8.436,8.436,0,0,0-5.693,1.9.979.979,0,0,1-.661.225c-2.421-.008-4.843,0-7.264,0-.059,0-.117,0-.176,0-.455.009-.735.241-.743.614-.008.391.265.638.743.639,1.826,0,3.652,0,5.477,0h1.169a11.13,11.13,0,0,0-1.048,1.83m7.913,10.726a7.347,7.347,0,1,1,7.334-7.34,7.365,7.365,0,0,1-7.334,7.34" transform="translate(0 0)" fill="#593b8a"/><path d="M324.365,510.359c-.041,0-.085-.006-.117.03h.117c0-.01,0-.02,0-.03Z" transform="translate(-305.207 -480.389)" fill="#593b8a"/><path d="M326.263,510.376c-.006.01-.012.016-.019.016h.117a.116.116,0,0,0-.1-.03.016.016,0,0,1,0,.014" transform="translate(-307.086 -480.392)" fill="#593b8a"/><path d="M326.288,510.05a.043.043,0,0,0-.017-.02c0,.006,0,.013,0,.019h.018" transform="translate(-307.11 -480.079)" fill="#593b8a"/><path d="M76.287,202.573c.83.007,1.659,0,2.489,0,1.22,0,2.44,0,3.66,0a.679.679,0,0,0,.7-.377c.2-.434-.12-.863-.654-.867-1.025-.007-2.05,0-3.075,0H76.421a.991.991,0,0,0-.431.057.621.621,0,0,0,.3,1.184" transform="translate(-71.188 -189.507)" fill="#593b8a"/><path d="M250,282.965a.666.666,0,0,0-1.138,0q-1.709,1.83-3.413,3.664a1.654,1.654,0,0,0-.2.25.606.606,0,0,0,.438.928.719.719,0,0,0,.659-.3l2.475-2.649v.39q0,2.416,0,4.832c0,.508-.01,1.016,0,1.523a.635.635,0,0,0,.631.694.649.649,0,0,0,.625-.705c0-.068,0-.137,0-.205v-6.522c.118.125.19.2.26.274l2.211,2.383a.7.7,0,0,0,.634.283.593.593,0,0,0,.491-.4.664.664,0,0,0-.218-.736q-1.729-1.851-3.458-3.7" transform="translate(-230.753 -266.046)" fill="#593b8a"/></g></g></g></svg>