<?xml version="1.0" encoding="utf-8"?><svg xmlns="http://www.w3.org/2000/svg" xmlns:xlink="http://www.w3.org/1999/xlink" width="37.535" height="32.824" viewBox="0 0 37.535 32.824"><defs><clipPath id="a"><path d="M18.768,0a1.1,1.1,0,0,0-1.1,1.1V5.811a1.1,1.1,0,1,0,2.2,0V1.1A1.1,1.1,0,0,0,18.768,0Z" fill="#0f0f0f"/></clipPath><clipPath id="b"><rect width="37.535" height="32.824" transform="translate(0 0)" fill="#0f0f0f"/></clipPath></defs><g transform="translate(0 0)"><g clip-path="url(#a)"><rect width="2.199" height="6.911" transform="translate(17.668 0)" fill="#0f0f0f"/></g><g clip-path="url(#b)"><path d="M13.278,7.767a1.1,1.1,0,0,0,1.555-1.555L12.477,3.856a1.1,1.1,0,0,0-1.555,1.555Z" fill="#0f0f0f"/><path d="M23.479,8.088a1.093,1.093,0,0,0,.777-.322L26.612,5.41a1.1,1.1,0,0,0-1.555-1.555L22.7,6.211a1.1,1.1,0,0,0,.777,1.877" fill="#0f0f0f"/><path d="M15.586,10.624l-.033.027L10.8,14.727a2.437,2.437,0,0,1-1.584.585H5.81A5.807,5.807,0,0,0,0,21.122v10.6a1.1,1.1,0,0,0,1.1,1.1h9.422a1.1,1.1,0,0,0,1.1-1.1v-10.1l5.595-4.8a1.29,1.29,0,0,0,.451-.979V11.632a1.284,1.284,0,0,0-2.082-1.008" fill="#0f0f0f"/><path d="M31.725,15.312H28.32a2.432,2.432,0,0,1-1.584-.586l-4.755-4.075-.032-.027a1.283,1.283,0,0,0-2.082,1.008v4.222a1.293,1.293,0,0,0,.45.979l5.6,4.8v10.1a1.1,1.1,0,0,0,1.1,1.1h9.422a1.1,1.1,0,0,0,1.1-1.1v-10.6a5.807,5.807,0,0,0-5.81-5.81" fill="#0f0f0f"/><path d="M10.444,10.679a4.633,4.633,0,1,0-4.633,4.633,4.638,4.638,0,0,0,4.633-4.633" fill="#0f0f0f"/><path d="M36.357,10.679a4.633,4.633,0,1,0-4.633,4.633,4.638,4.638,0,0,0,4.633-4.633" fill="#0f0f0f"/></g></g></svg>