<?xml version="1.0" encoding="utf-8"?><svg xmlns="http://www.w3.org/2000/svg" xmlns:xlink="http://www.w3.org/1999/xlink" width="60.835" height="50" viewBox="0 0 60.835 50"><defs><clipPath id="a"><rect width="60.835" height="50" fill="none"/></clipPath></defs><g clip-path="url(#a)"><path d="M60.836,32.247c-.242,1.277-.392,2.577-.739,3.824A19.08,19.08,0,0,1,44.045,49.843a18.687,18.687,0,0,1-13.18-3.213.644.644,0,0,0-.873,0A19.135,19.135,0,1,1,14.075,12.413c.153-.04.3-.087.545-.16-.265-.31-.5-.589-.737-.861Q11.794,9,9.7,6.605c-.582-.667-.584-.955-.019-1.65C10.873,3.5,12.07,2.047,13.241.577A1.416,1.416,0,0,1,14.462,0q4.69.021,9.38,0a1.416,1.416,0,0,1,1.225.568c1.2,1.5,2.42,2.979,3.629,4.469a.971.971,0,0,1-.042,1.519q-2.257,2.6-4.523,5.192c-.127.146-.246.3-.42.509a19.411,19.411,0,0,1,6.7,3.134c.171-.117.347-.235.521-.354A19.16,19.16,0,0,1,60.5,27.36c.122.676.225,1.359.338,2.037Zm-27.872,9.07a17.33,17.33,0,1,0-26.33,1.54c6.652,6.927,16.628,6.5,22.2,2.347-.465-.458-.934-.922-1.43-1.413-.08.049-.214.129-.35.209a14.847,14.847,0,0,1-11.14,1.829,15.273,15.273,0,0,1-11.842-17.7,14.554,14.554,0,0,1,2.378-5.833.923.923,0,0,1,1.307-.4c.474.3.538.815.174,1.4-.054.082-.115.162-.167.244a13.19,13.19,0,0,0-1.85,10.122A13.51,13.51,0,0,0,21.983,44.108a12.2,12.2,0,0,0,4.31-1.753c-5.016-7.7-5.007-15.333,0-22.98-.089-.061-.169-.117-.254-.169a13.542,13.542,0,0,0-15.3,1.061,5.511,5.511,0,0,1-.561.434.88.88,0,0,1-1.106-1.35,3.031,3.031,0,0,1,.4-.354,15.329,15.329,0,0,1,24.285,7.211,22.19,22.19,0,0,1,.634,3.07.812.812,0,0,1-.744.965.851.851,0,0,1-.986-.728,3.882,3.882,0,0,1-.08-.467,13.342,13.342,0,0,0-1.939-5.368c-.059-.1-.1-.2-.167-.331-3.462,4.958-2.627,11.725.019,14.922a13.61,13.61,0,0,0,2.033-5.152c.134-.746.521-1.08,1.075-.984s.789.561.669,1.293a15.105,15.105,0,0,1-2.434,6.058c-.085.127-.15.265-.192.338l1.329,1.493M27.889,20.412a17.329,17.329,0,1,0,26.2-1.662,17.156,17.156,0,0,0-22.1-2.195c.472.46.946.92,1.437,1.4.085-.052.2-.124.319-.195a15,15,0,0,1,9.791-2.11A15.293,15.293,0,0,1,56.514,34.691a25.379,25.379,0,0,1-1.676,4.035.887.887,0,0,1-1.277.477.911.911,0,0,1-.27-1.34c.092-.174.2-.343.291-.516A13.256,13.256,0,0,0,55.1,28.909,13.536,13.536,0,0,0,38.834,17.633a12.405,12.405,0,0,0-4.27,1.742c5.009,7.694,5,15.328,0,22.978.1.063.19.136.291.192a13.277,13.277,0,0,0,13.267.216,22.508,22.508,0,0,0,2.969-2.145.9.9,0,0,1,1.322.023.887.887,0,0,1-.1,1.272,2.962,2.962,0,0,1-.216.2,15.1,15.1,0,0,1-13.3,3.793A15.36,15.36,0,0,1,26.68,27.776a16.056,16.056,0,0,1,2.6-5.906c-.46-.486-.906-.953-1.387-1.458M16.868,6.716c.559,1.615,1.082,3.188,1.671,4.735.063.164.509.244.779.249a.656.656,0,0,0,.507-.322c.343-.883.636-1.786.944-2.683.221-.646.437-1.293.667-1.979Zm-.026-1.854h4.61c-.11-.378-.192-.716-.305-1.045-.23-.664-.293-1.6-.763-1.911-.512-.343-1.408-.1-2.138-.117a.423.423,0,0,0-.174.007c-.113.061-.277.117-.31.216-.315.925-.606,1.861-.92,2.85M26.178,6.68c-.887,0-1.629.021-2.368-.009a.549.549,0,0,0-.624.46c-.467,1.4-.958,2.8-1.437,4.2-.045.131-.073.27-.108.406l.089.042,4.448-5.1m-9.6,5.084c.042-.016.085-.033.127-.047q-.824-2.4-1.655-4.791c-.033-.094-.148-.225-.228-.225-.847-.016-1.7-.012-2.671-.012,1.552,1.779,2.99,3.427,4.427,5.075M15.957,1.746c-.559.052-1.176-.077-1.413.164-.873.89-1.62,1.9-2.507,2.986.988,0,1.814.014,2.636-.012a.505.505,0,0,0,.357-.291c.31-.894.589-1.8.927-2.847m6.439.12c.305.944.589,1.843.892,2.739.038.11.162.27.251.272.869.021,1.737.012,2.73.012C25.56,4.014,24.9,3.3,24.358,2.5A1.607,1.607,0,0,0,22.4,1.866" transform="translate(0 -0.001)" fill="#624198"/></g></svg>