<?xml version="1.0" encoding="utf-8"?><svg xmlns="http://www.w3.org/2000/svg" width="63.938" height="63.938" viewBox="0 0 63.938 63.938"><path d="M45.088,40.46l-6.464-1.216a2.146,2.146,0,0,1-1.64-2.5A2.037,2.037,0,0,1,39.327,35l7.067,1.329a4.434,4.434,0,0,1,3.485,5.14c-.01.054-.027.1-.037.155a8.079,8.079,0,0,1-1.676,3.168c-4.611,5.3-15.544,3.773-24.419-3.413s-12.335-17.3-7.723-22.6a8.812,8.812,0,0,1,4.26-2.628c.143-.036.281-.087.424-.108a.007.007,0,0,1,0,0,4.3,4.3,0,0,1,4.61,2.613l2.517,6.742a1.907,1.907,0,0,1-1.18,2.463,1.984,1.984,0,0,1-2.526-1.147l-2.313-6.2a.888.888,0,0,0-1.09-.475,4.947,4.947,0,0,0-1.644,1.218c-3.192,3.669.043,11.359,7.229,17.173s15.6,7.556,18.791,3.887a4.62,4.62,0,0,0,.508-.728.756.756,0,0,0,.084-.232.792.792,0,0,0-.608-.893Zm-39.094,1.5a2,2,0,1,1-2-2,2,2,0,0,1,2,2ZM31.969,63.938A31.781,31.781,0,0,1,17.981,60.7c-.065-.028-.128-.058-.189-.087s-.124-.056-.185-.087a5.483,5.483,0,0,0-3.911-.393l-.08.019-5.8,1.61a.583.583,0,0,0-.068.013A4.545,4.545,0,0,1,2.16,56.2c.014-.056.019-.1.031-.148l1.694-6.1H4a2,2,0,0,1,4,0h.041l-.065.235a1.911,1.911,0,0,1-.169.607L6.006,57.254s.007,0,.007,0a.547.547,0,0,0,.638.676s0,.01,0,.01L12.6,56.29l.032,0a9.447,9.447,0,0,1,6.73.65.445.445,0,0,0,.065.02A27.964,27.964,0,1,0,4,31.969c0,.586.029,1.168.065,1.743l-.09.008A1.965,1.965,0,0,1,4,33.967a2,2,0,1,1-4,0,1.927,1.927,0,0,1,.053-.441C.026,33.008,0,32.491,0,31.969A31.969,31.969,0,1,1,31.969,63.938Z" fill="#4ac959" fill-rule="evenodd"/></svg>