<?xml version="1.0" encoding="utf-8"?><svg xmlns="http://www.w3.org/2000/svg" xmlns:xlink="http://www.w3.org/1999/xlink" width="50" height="50" viewBox="0 0 50 50"><defs><clipPath id="a"><rect width="50" height="50" fill="#593b8a"/></clipPath></defs><g clip-path="url(#a)"><path d="M50,22.585l-.02,4.92c-.039.086-.076.171-.112.256a4.014,4.014,0,0,1-.292.587,2.718,2.718,0,0,1-2.306,1.3c-.314.013-.628.008-.94,0-.155,0-.308,0-.462,0-.568.018-.831.2-.966.682a22.3,22.3,0,0,1-2.043,4.933.856.856,0,0,0,.173,1.161c.157.167.317.326.475.485s.324.323.474.483a2.7,2.7,0,0,1,.037,3.933c-.862.9-1.764,1.8-2.683,2.683a2.7,2.7,0,0,1-3.9-.017c-.2-.18-.387-.368-.575-.56-.138-.142-.278-.285-.43-.426a.873.873,0,0,0-1.163-.155c-.449.25-.916.488-1.388.707a.921.921,0,0,1-.726.02.946.946,0,0,1-.043-1.746c.427-.2.852-.411,1.3-.654a2.666,2.666,0,0,1,3.313.479c.126.12.249.243.37.365.2.2.392.394.6.573a2.941,2.941,0,0,0,.562.329l.149.075c.071-.042.144-.08.215-.118a1.943,1.943,0,0,0,.477-.31c.844-.807,1.679-1.643,2.486-2.487a.876.876,0,0,0-.015-1.431c-.173-.19-.346-.365-.52-.539s-.358-.358-.527-.546a2.566,2.566,0,0,1-.383-3.03,28.129,28.129,0,0,0,2.027-4.9,2.63,2.63,0,0,1,2.537-1.861l.475,0c.3,0,.609.01.918,0a.922.922,0,0,0,1.021-1c.013-.79.008-1.581,0-2.373,0-.4,0-.793,0-1.19a.9.9,0,0,0-1-1c-.455-.019-.878,0-1.322-.018a2.652,2.652,0,0,1-2.685-1.975,23.679,23.679,0,0,0-1.915-4.64,2.674,2.674,0,0,1,.5-3.351c.14-.149.292-.3.443-.451s.293-.293.43-.438a1.136,1.136,0,0,0,.383-.737.977.977,0,0,0-.357-.694c-.738-.771-1.528-1.567-2.491-2.51a.9.9,0,0,0-1.452,0c-.146.139-.287.285-.43.431-.212.219-.433.446-.672.652a2.55,2.55,0,0,1-2.987.38,27.44,27.44,0,0,0-4.959-2.046,2.592,2.592,0,0,1-1.8-2.485c-.008-.24-.008-.485-.008-.729s0-.479-.011-.717a.915.915,0,0,0-1.018-1.023H23.224a.9.9,0,0,0-.995,1c-.013.3-.008.588,0,.886,0,.154,0,.31,0,.467a2.661,2.661,0,0,1-1.936,2.637,24.66,24.66,0,0,0-4.715,1.954,2.7,2.7,0,0,1-3.291-.458c-.164-.164-.323-.329-.482-.492s-.314-.324-.471-.481a.9.9,0,0,0-1.412,0c-.86.843-1.685,1.668-2.522,2.524a.889.889,0,0,0,.019,1.413c.125.132.255.261.386.39.221.219.45.446.663.7a2.57,2.57,0,0,1,.4,3.061A25.883,25.883,0,0,0,6.859,20.34,2.62,2.62,0,0,1,4.28,22.2c-.224.008-.457,0-.69.008s-.443,0-.659.01a.925.925,0,0,0-1.043,1.019c-.012.776-.008,1.554,0,2.337q0,.591,0,1.188a.929.929,0,0,0,1.038,1.014c.284.012.574.007.863,0,.145,0,.289,0,.432,0a2.682,2.682,0,0,1,2.674,1.955,24.117,24.117,0,0,0,1.935,4.7,2.707,2.707,0,0,1-.5,3.312c-.2.212-.414.423-.628.633L7.38,38.7a.87.87,0,0,0-.017,1.338c.864.9,1.711,1.749,2.6,2.594a.87.87,0,0,0,1.344,0c.124-.117.244-.24.368-.364.17-.175.343-.35.527-.513a2.653,2.653,0,0,1,3.361-.567,28.7,28.7,0,0,0,4.83,1.992,2.6,2.6,0,0,1,1.822,2.5c.008.24.008.489.008.74s0,.494.011.743a.884.884,0,0,0,.957.946c1.2.018,2.418.018,3.619,0a.88.88,0,0,0,.979-.963c.013-.3.008-.6,0-.9,0-.152,0-.3,0-.452a2.686,2.686,0,0,1,1.954-2.675l.209-.065a.975.975,0,0,1,1.2.577.888.888,0,0,1-.035.757.931.931,0,0,1-.631.469.876.876,0,0,0-.81,1.012c-.01.229-.01.454-.01.677s0,.462-.008.687A2.763,2.763,0,0,1,26.851,50H23.167a2.757,2.757,0,0,1-2.812-2.81c-.01-.221-.01-.452-.01-.683s0-.449-.01-.669a.826.826,0,0,0-.645-.938,24.585,24.585,0,0,1-5.022-2.081.85.85,0,0,0-1.054.157c-.162.154-.323.318-.482.483s-.33.339-.5.5a2.747,2.747,0,0,1-4.01,0c-.859-.823-1.723-1.688-2.57-2.57a2.718,2.718,0,0,1,0-4.011c.165-.187.349-.368.534-.55.137-.136.276-.271.412-.414a.893.893,0,0,0,.171-1.129,23.312,23.312,0,0,1-2.06-4.929.857.857,0,0,0-.954-.7c-.14,0-.288,0-.436,0-.3,0-.609.008-.922,0A2.754,2.754,0,0,1,.014,26.824C0,25.6,0,24.361.014,23.138a2.729,2.729,0,0,1,2.771-2.792c.464-.019.932-.019,1.4-.019a.852.852,0,0,0,.913-.614,23.724,23.724,0,0,1,2.1-5.074.811.811,0,0,0-.174-1.032c-.158-.168-.32-.33-.478-.489s-.32-.319-.469-.477a2.759,2.759,0,0,1-.019-4.046c.977-1,1.788-1.8,2.553-2.533a2.714,2.714,0,0,1,4.027-.019c.159.15.317.312.472.473s.3.31.456.456a.862.862,0,0,0,1.16.174A22.9,22.9,0,0,1,19.674,5.1c.476-.133.662-.4.662-.965.01-.2.01-.4.01-.6s0-.413.01-.62a2.726,2.726,0,0,1,2-2.811.7.7,0,0,0,.117-.067L22.523,0l.069,0h4.894l.054.036A.589.589,0,0,0,27.657.1a2.742,2.742,0,0,1,2,2.821c.008.2.008.406.008.611s0,.4.01.587a.875.875,0,0,0,.7,1,22.5,22.5,0,0,1,4.891,2.024.885.885,0,0,0,1.183-.175c.306-.287.6-.6.889-.908a2.749,2.749,0,0,1,4.064,0c.858.821,1.71,1.674,2.533,2.533a2.716,2.716,0,0,1,.018,4.029c-.214.227-.438.446-.659.663l-.309.306a.867.867,0,0,0-.151,1.085A23.8,23.8,0,0,1,44.9,19.663c.134.479.406.664.966.664.481.02.938,0,1.4.019a2.66,2.66,0,0,1,2.306,1.3,3.136,3.136,0,0,1,.29.583c.037.087.074.174.113.26ZM10.724,24.407a.857.857,0,0,0,.154.014.987.987,0,0,0,.916-.875c.025-.113.04-.229.057-.344l.007-.054a12.587,12.587,0,0,1,2.654-6.275A12.757,12.757,0,0,1,26.74,11.868a12.739,12.739,0,0,1,10.687,8.5A12.558,12.558,0,0,1,38,22.531c.07.346.142.692.224,1.033a.932.932,0,1,0,1.832-.313c-.042-.374-.09-.773-.169-1.165A15.2,15.2,0,0,0,25.038,9.844c-.018,0-.037,0-.054,0a14.472,14.472,0,0,0-5.678,1.114,14.937,14.937,0,0,0-8.755,9.535,16.482,16.482,0,0,0-.5,2.261l-.088.5a1.013,1.013,0,0,0,.146.775.929.929,0,0,0,.615.376M9.962,26.89l.088.5a16.5,16.5,0,0,0,.5,2.262,14.942,14.942,0,0,0,8.755,9.535A14.466,14.466,0,0,0,24.983,40.3h.055a15.2,15.2,0,0,0,14.847-12.24c.079-.392.127-.79.169-1.167a.932.932,0,1,0-1.832-.312c-.082.34-.154.687-.224,1.033a12.587,12.587,0,0,1-.571,2.162,12.739,12.739,0,0,1-10.687,8.5,12.744,12.744,0,0,1-12.227-5.007A12.577,12.577,0,0,1,11.858,27l-.007-.052c-.017-.114-.032-.23-.057-.345a.961.961,0,0,0-1.07-.861.942.942,0,0,0-.616.377,1.016,1.016,0,0,0-.145.774M19.7,21.6c0,.574.376.843,1.2.861h5.164a2.686,2.686,0,0,1-2.493,1.812c-.556.036-1.129.018-1.685.018a1.421,1.421,0,0,0-1.452.789,1.475,1.475,0,0,0,.251,1.687c1.183,1.452,2.33,2.923,3.5,4.394.574.7,1.112,1.4,1.685,2.1a.879.879,0,0,0,1.273.251.9.9,0,0,0,.089-1.345c-.054-.073-.125-.162-.18-.233-1.254-1.579-2.528-3.175-3.783-4.754-.269-.36-.538-.7-.878-1.131.484,0,.843,0,1.22-.017A4.01,4.01,0,0,0,27.38,23.7c.465-1.023.968-1.4,2.043-1.274a.661.661,0,0,0,.611-.2.871.871,0,0,0,.251-.61.8.8,0,0,0-.233-.645.969.969,0,0,0-.628-.269c-.376-.019-.771.018-1.165-.019a.53.53,0,0,1-.4-.232c-.214-.485-.394-1-.609-1.561.7,0,1.4.018,2.08,0a1.093,1.093,0,0,0,.718-.269.868.868,0,0,0,.251-.627.816.816,0,0,0-.233-.593.953.953,0,0,0-.736-.269c-2.887,0-5.775,0-8.661.018a1.122,1.122,0,0,0-.789.36.933.933,0,0,0-.09.861,1.224,1.224,0,0,0,.843.5c1.022.054,2.063,0,3.1.018A2.368,2.368,0,0,1,26.017,20.7H20.943c-.862,0-1.256.287-1.238.9" transform="translate(0)" fill="#593b8a"/></g></svg>