<?xml version="1.0" encoding="utf-8"?><svg xmlns="http://www.w3.org/2000/svg" width="17.257" height="17.257" viewBox="0 0 17.257 17.257"><path d="M7.2,38.552l3.667,2.084L7.2,42.72Zm10.062-4.7V47.408a1.849,1.849,0,0,1-1.849,1.849H1.849A1.849,1.849,0,0,1,0,47.408V33.849A1.849,1.849,0,0,1,1.849,32H15.408A1.849,1.849,0,0,1,17.257,33.849ZM15.639,40.64a18.509,18.509,0,0,0-.293-3.4,1.758,1.758,0,0,0-1.24-1.248,41.366,41.366,0,0,0-5.478-.3,41.366,41.366,0,0,0-5.478.3,1.758,1.758,0,0,0-1.24,1.248,19.861,19.861,0,0,0,0,6.795,1.733,1.733,0,0,0,1.24,1.229,41.9,41.9,0,0,0,5.478.293,41.365,41.365,0,0,0,5.478-.3,1.733,1.733,0,0,0,1.24-1.229,18.452,18.452,0,0,0,.293-3.394Z" transform="translate(0 -32)" fill="#45247c"/></svg>