<?xml version="1.0" encoding="utf-8"?><svg xmlns="http://www.w3.org/2000/svg" width="16" height="16" viewBox="0 0 16 16"><path d="M6.671,38.075l3.4,1.932-3.4,1.932ZM16,33.714V46.286A1.715,1.715,0,0,1,14.286,48H1.714A1.715,1.715,0,0,1,0,46.286V33.714A1.715,1.715,0,0,1,1.714,32H14.286A1.715,1.715,0,0,1,16,33.714Zm-1.5,6.3a17.161,17.161,0,0,0-.271-3.15,1.63,1.63,0,0,0-1.15-1.157A38.352,38.352,0,0,0,8,35.429a38.352,38.352,0,0,0-5.079.275,1.63,1.63,0,0,0-1.15,1.157,18.414,18.414,0,0,0,0,6.3A1.607,1.607,0,0,0,2.921,44.3,38.851,38.851,0,0,0,8,44.571a38.351,38.351,0,0,0,5.079-.275,1.607,1.607,0,0,0,1.15-1.139,17.108,17.108,0,0,0,.271-3.146Z" transform="translate(0 -32)" fill="#fff"/></svg>